<?xml version="1.0" standalone="no"?>
<!DOCTYPE svg PUBLIC "-//W3C//DTD SVG 1.1//EN" "http://www.w3.org/Graphics/SVG/1.1/DTD/svg11.dtd" >
<svg xmlns="http://www.w3.org/2000/svg">
<metadata>Generated by IcoMoon</metadata>
<defs>
<font id="entypo" horiz-adv-x="512">
<font-face units-per-em="512" ascent="480" descent="-32" />
<missing-glyph horiz-adv-x="512" />
<glyph unicode="&#x20;" d="" horiz-adv-x="256" />
<glyph unicode="&#xe600;" d="M496.64 256h-87.040v87.040c0 15.36-10.24 15.36-25.6 15.36s-25.6 0-25.6-15.36v-87.040h-87.040c-15.36 0-15.36-10.24-15.36-25.6s0-25.6 15.36-25.6h87.040v-87.040c0-15.36 10.24-15.36 25.6-15.36s25.6 0 25.6 15.36v87.040h87.040c15.36 0 15.36 10.24 15.36 25.6s0 25.6-15.36 25.6zM189.44 256h-174.080c-15.36 0-15.36-10.24-15.36-25.6s0-25.6 15.36-25.6h174.080c15.36 0 15.36 10.24 15.36 25.6s0 25.6-15.36 25.6zM189.44 128h-174.080c-15.36 0-15.36-10.24-15.36-25.6s0-25.6 15.36-25.6h174.080c15.36 0 15.36 10.24 15.36 25.6s0 25.6-15.36 25.6zM189.44 384h-174.080c-15.36 0-15.36-10.24-15.36-25.6s0-25.6 15.36-25.6h174.080c15.36 0 15.36 10.24 15.36 25.6s0 25.6-15.36 25.6z" />
<glyph unicode="&#xe601;" d="M409.6 486.4h-307.2c-28.16 0-51.2-23.014-51.2-51.2v-384c0-14.131 11.443-25.6 25.6-25.6v-51.2h358.4v51.2c14.157 0 25.6 11.469 25.6 25.6v384c0 28.186-23.014 51.2-51.2 51.2zM358.4 102.4h-102.4v25.6h102.4v-25.6zM384 204.8h-256v204.8h256v-204.8z" />
<glyph unicode="&#xe602;" d="M459.75 369.382l-184.397-126.694c0 0-7.142-5.145-7.142-12.313s7.142-12.263 7.142-12.263l184.397-126.745c14.643-9.728 26.649-2.534 26.649 16.026v245.99c0 18.611-12.007 25.805-26.649 16zM227.405 369.382l-184.397-126.694c0 0-7.142-5.145-7.142-12.313s7.142-12.263 7.142-12.263l184.397-126.745c14.643-9.753 26.649-2.56 26.649 16v246.016c0 18.611-12.006 25.805-26.649 16z" />
<glyph unicode="&#xe603;" d="M322.13 291.247c0 8.767-7.117 15.869-15.87 15.869h-100.525c-8.763 0-15.869-7.102-15.869-15.869v-100.529h28.038v-119.038h76.183v119.038h28.043v100.529zM290.383 354.733c0-18.992-15.396-34.387-34.387-34.387s-34.387 15.395-34.387 34.387c0 18.992 15.395 34.387 34.387 34.387s34.387-15.395 34.387-34.387zM255.688 476.156c-68.080 0-125.705-23.752-172.861-71.264-48.4-49.154-72.587-107.315-72.587-174.492 0-67.169 24.187-124.933 72.587-173.262 48.386-48.329 106.012-72.494 172.861-72.494 67.664 0 126.313 24.36 175.94 73.108 46.747 46.274 70.132 103.829 70.132 172.648s-23.79 126.98-71.361 174.493c-47.579 47.511-105.817 71.264-174.71 71.264zM256.303 431.93c55.776 0 103.139-19.658 142.107-58.987 39.367-38.909 59.047-86.421 59.047-142.542 0-56.52-19.267-103.424-57.824-140.698-40.604-40.139-88.378-60.209-143.33-60.209-54.963 0-102.328 19.86-142.107 59.594s-59.669 86.834-59.669 141.313c0 54.479 20.096 101.991 60.288 142.542 38.553 39.329 85.708 58.987 141.488 58.987z" />
<glyph unicode="&#xe604;" d="M255.683 476.158c-68.073 0-125.699-23.745-172.856-71.264-48.401-49.154-72.588-107.308-72.588-174.494 0-67.169 24.187-124.934 72.588-173.249 48.386-48.344 106.012-72.51 172.856-72.51 67.668 0 126.317 24.375 175.945 73.109 46.747 46.29 70.132 103.844 70.132 172.649 0 68.819-23.79 126.99-71.362 174.494-47.579 47.519-105.817 71.264-174.715 71.264zM256.301 431.938c55.777 0 103.139-19.665 142.109-58.994 39.368-38.911 59.047-86.415 59.047-142.544 0-56.52-19.267-103.424-57.825-140.699-40.604-40.14-88.379-60.195-143.332-60.195-54.959 0-102.325 19.86-142.105 59.595s-59.669 86.834-59.669 141.299c0 54.494 20.096 101.999 60.288 142.544 38.553 39.329 85.709 58.994 141.486 58.994zM348.851 288.644h-178.641v-42.315h178.641v42.315zM348.851 209.671h-178.641v-42.315h178.641v42.315z" />
<glyph unicode="&#xe605;" d="M430.389 404.895c-47.58 47.52-105.81 71.265-174.706 71.265-68.085 0-125.7-23.745-172.86-71.265-48.404-49.155-72.585-107.31-72.585-174.495 0-67.17 24.18-124.935 72.585-173.25 48.39-48.345 106.006-72.51 172.86-72.51 67.665 0 126.316 24.375 175.935 73.11 46.755 46.289 70.141 103.845 70.141 172.65 0 68.82-23.791 126.989-71.37 174.495zM399.625 89.7c-40.605-40.141-88.38-60.195-143.325-60.195-54.959 0-102.33 19.86-142.11 59.594s-59.67 86.835-59.67 141.301c0 23.040 3.637 44.82 10.829 65.355l65.122-28.822h-4.695v-29.204h23.048c0-4.125-0.412-8.235-0.412-12.345v-7.006h-22.636v-29.204h26.745c3.705-21.81 11.933-39.495 23.040-53.49 23.040-30.45 60.067-46.906 100.388-46.906 26.34 0 50.19 7.815 64.185 15.646l-9.885 45.66c-8.64-4.531-27.96-10.695-46.889-10.695-20.58 0-39.907 6.164-53.078 20.985-6.173 6.99-10.695 16.455-13.567 28.8h89.445l127.095-56.257c-8.805-15.599-19.98-30.015-33.63-43.214zM239.785 218.377l-0.54 0.413 0.93-0.413h-0.39zM316.3 237.727h3.675v29.205h-69.66l-28.297 12.525c2.438 5.475 5.317 10.373 8.678 14.205 12.758 15.659 30.855 22.23 50.611 22.23 18.105 0 34.964-5.34 45.66-9.869l11.52 46.905c-14.82 6.57-36.615 12.329-61.711 12.329-38.669 0-71.588-15.63-95.040-41.954-5.205-6.015-9.72-12.765-13.815-19.905l-80.82 35.767c7.83 11.745 17.040 23.024 27.705 33.779 38.565 39.33 85.71 58.996 141.495 58.996 55.77 0 103.14-19.666 142.11-58.996 39.36-38.91 59.040-86.414 59.040-142.544 0-18.495-2.099-35.94-6.24-52.38l-134.91 59.708z" />
<glyph unicode="&#xe606;" d="M255.685 476.16c68.895 0 127.14-23.752 174.72-71.265 47.565-47.52 71.356-105.682 71.356-174.495s-23.385-126.368-70.125-172.65c-49.635-48.743-108.285-73.11-175.951-73.11-66.84 0-124.47 24.158-172.86 72.495-48.397 48.331-72.585 106.096-72.585 173.266s24.188 125.34 72.585 174.495c47.16 47.512 104.79 71.265 172.86 71.265zM65.53 296.415c-7.335-20.737-11.002-42.742-11.002-66.015 0-54.481 19.889-101.581 59.67-141.308 39.788-39.735 87.142-59.603 142.103-59.603s102.736 20.063 143.34 60.211c13.589 13.139 24.779 27.465 33.57 42.997l-92.64 41.257c-6.286-31.17-34.065-52.23-67.65-54.705v-37.882h-28.208v37.882c-27.585 0.315-54.232 11.587-74.602 29.43l33.855 34.132c16.297-15.344 32.595-22.238 54.855-22.238 14.416 0 30.405 5.64 30.405 24.428 0 6.659-2.579 11.288-6.644 14.767l-52.605 23.423c-14.43 6.428-26.655 11.873-38.925 17.326l-125.519 55.898zM256.3 431.933c-55.77 0-102.93-19.664-141.48-58.995-10.499-10.583-19.62-21.645-27.374-33.188l93.945-41.827c8.49 26.055 33.255 41.858 63.322 43.627v37.883h28.208v-37.883c19.44-0.937 40.755-6.263 61.755-22.545l-32.279-33.188c-11.91 8.453-26.956 14.407-42.015 14.407-12.218 0-29.46-3.764-29.46-19.102 0-2.34 0.78-4.403 2.205-6.24l52.695-23.468c13.605-6.053 26.595-11.835 39.464-17.565l125.925-56.070c4.171 16.5 6.255 34.043 6.255 52.621 0 56.122-19.68 103.635-59.055 142.537-38.97 39.33-86.325 58.995-142.11 58.995z" />
<glyph unicode="&#xe607;" d="M255.679 476.158c-68.073 0-125.699-23.752-172.856-71.264-48.401-49.154-72.588-107.317-72.588-174.494 0-67.169 24.187-124.927 72.588-173.256 48.386-48.337 106.013-72.501 172.856-72.501 67.668 0 126.317 24.367 175.945 73.109 46.747 46.282 70.132 103.837 70.132 172.649 0 68.819-23.79 126.982-71.362 174.494-47.579 47.512-105.817 71.264-174.715 71.264zM256.297 431.931c55.777 0 103.139-19.657 142.109-58.988 39.368-38.909 59.047-86.421 59.047-142.543 0-56.52-19.267-103.424-57.825-140.699-40.604-40.14-88.379-60.21-143.332-60.21-54.959 0-102.325 19.868-142.105 59.603-39.779 39.727-59.669 86.834-59.669 141.307 0 54.479 20.096 101.992 60.288 142.543 38.553 39.329 85.709 58.988 141.486 58.988zM174.582 274.47h27.663c15.454 0 21.938-7.441 21.938-20.985 0-10.493-5.531-20.603-20.984-20.603h-28.616v41.588zM140.622 163.815h34.343v43.882h26.516c46.553 0 56.663 27.855 56.663 45.975 0 26.902-13.545 45.982-50.174 45.982h-67.346v-135.839zM267.39 163.815h52.656c41.399 0 69.247 19.65 69.247 67.919s-27.848 67.92-69.247 67.92h-52.656v-135.839zM301.342 271.034h19.274c25.567 0 34.725-17.362 34.725-39.3s-9.158-39.3-34.53-39.3h-19.469v78.6z" />
<glyph unicode="&#xe608;" d="M255.677 476.152c-68.067 0-125.696-23.744-172.855-71.263-48.389-49.154-72.582-107.307-72.582-174.49 0-67.168 24.194-124.916 72.582-173.245 48.388-48.344 106.017-72.508 172.855-72.508 67.671 0 126.327 24.374 175.96 73.108 46.739 46.289 70.123 103.842 70.123 172.645 0 68.817-23.789 126.987-71.353 174.49-47.579 47.519-105.829 71.263-174.73 71.263zM256.293 431.934c55.791 0 103.153-19.665 142.121-58.993 39.373-38.909 59.053-86.412 59.053-142.541 0-56.519-19.274-103.422-57.824-140.696-40.604-40.139-88.385-60.209-143.351-60.209-54.958 0-102.311 19.875-142.090 59.609-39.779 39.718-59.669 86.832-59.669 141.296 0 54.479 20.085 101.997 60.283 142.54 38.549 39.329 85.708 58.994 141.476 58.994zM416.727 226.050l-48.928 20.339v60.944l-150.31 62.578-67.003-29.429v-69.703l0.705-0.3-59.098-24.6v-63.163l63.163-27.075 63.5 26.279 4.29-1.711 131.524-54.238 2.88 1.2 64.077 27.359v69.598l-4.8 1.92zM346.889 145.607l-0.6 0.24v-0.375l-112.677 46.694v44.428l112.677-46.049v-1.44l0.6-0.255v-43.243zM354.479 202.365l-35.721 15.3 38.466 16.485 36.688-15.255-39.433-16.53zM406.168 164.851l-43.918-18.913v43.018l43.918 18.48v-42.584z" />
<glyph unicode="&#xe609;" d="M255.677 476.156c-68.067 0-125.696-23.745-172.855-71.263-48.389-49.154-72.582-107.307-72.582-174.49 0-67.176 24.194-124.924 72.582-173.253 48.388-48.344 106.017-72.508 172.855-72.508 67.671 0 126.327 24.374 175.96 73.108 46.739 46.289 70.123 103.842 70.123 172.653 0 68.817-23.789 126.986-71.353 174.49-47.579 47.519-105.829 71.263-174.73 71.263zM256.293 431.938c55.791 0 103.153-19.665 142.121-58.993 39.373-38.909 59.053-86.412 59.053-142.541 0-56.526-19.274-103.43-57.824-140.704-40.604-40.139-88.385-60.209-143.351-60.209-54.958 0-102.311 19.875-142.090 59.609-39.779 39.719-59.669 86.832-59.669 141.303 0 54.478 20.085 101.996 60.283 142.54 38.549 39.329 85.708 58.994 141.476 58.994zM356.654 300.811h-53.766v53.519c0 7.417-6.015 13.439-13.44 13.439h-134.149c-0.405 0.014-0.81 0.014-1.2 0-6.96-0.63-12.27-6.465-12.24-13.439v-180.963c0-7.425 6.015-13.44 13.44-13.44h53.758v-53.518c0-7.425 6.015-13.44 13.44-13.44h134.157c7.425 0 13.44 6.015 13.44 13.44v180.962c0 7.418-6.015 13.44-13.44 13.44zM168.739 186.815v154.076h107.277v-40.079h-53.519c-0.48 0.023-0.96 0.023-1.44 0-6.855-0.742-12.044-6.547-12-13.44v-100.557h-40.319zM343.215 273.932v-154.083h-107.277v154.083h107.277z" />
<glyph unicode="&#xe60a;" d="M255.683 476.158c-68.073 0-125.699-23.76-172.856-71.264-48.401-49.154-72.588-107.324-72.588-174.494s24.187-124.934 72.588-173.264c48.386-48.337 106.012-72.495 172.856-72.495 67.668 0 126.317 24.368 175.945 73.109 46.747 46.282 70.132 103.837 70.132 172.649s-23.79 126.974-71.362 174.494c-47.579 47.505-105.817 71.264-174.715 71.264zM256.301 431.931c55.777 0 103.139-19.664 142.109-58.988 39.368-38.909 59.047-86.421 59.047-142.543 0-56.52-19.267-103.424-57.825-140.707-40.604-40.139-88.379-60.202-143.332-60.202-54.959 0-102.322 19.868-142.105 59.595-39.779 39.735-59.669 86.835-59.669 141.314s20.096 101.992 60.288 142.543c38.553 39.323 85.709 58.988 141.486 58.988zM146.754 265.087c9.805 61.83 53.328 94.889 107.879 94.889 78.462 0 126.273-56.94 126.273-132.847 0-74.077-50.88-131.624-127.499-131.624-52.714 0-99.91 32.445-108.494 96.112h61.912c1.837-33.060 23.291-44.692 53.939-44.692 34.935 0 57.622 32.452 57.622 82.042 0 52.035-19.62 79.582-56.399 79.582-26.966 0-50.257-9.795-55.162-43.463l17.995 0.098-48.731-48.727-48.731 48.727 19.395-0.097z" />
<glyph unicode="&#xe60b;" d="M195.875 188.724c-10.399 0-18.25 3.801-23.55 11.403-5.35 7.548-8 17.649-8 30.249 0 27.75 10.499 41.652 31.55 41.652 4.2 0 8.75-1.402 13.65-4.202s9.048-7.7 12.4-14.7l31.55 16.4c-12.6 22.7-33.5 34.050-62.651 34.050-19.925 0-36.399-6.6-49.397-19.75-13.052-13.2-19.603-30.999-19.603-53.45 0-23 6.478-40.95 19.351-53.85 12.9-12.9 29.901-19.3 50.9-19.3 13.2 0 25.25 3.3 36.177 9.849 10.923 6.603 19.474 15.651 25.673 27.151l-29.050 14.7c-5.6-13.45-15.276-20.202-29-20.202zM331.724 188.724c-10.399 0-18.247 3.801-23.55 11.403-5.35 7.548-8 17.649-8 30.249 0 27.75 10.502 41.652 31.55 41.652 4.452 0 9.151-1.402 14.051-4.202 4.926-2.8 9.050-7.7 12.45-14.7l31.099 16.4c-12.35 22.7-33.099 34.050-62.248 34.050-19.9 0-36.375-6.6-49.4-19.75-13.048-13.2-19.551-30.999-19.551-53.45 0-23 6.351-40.95 19.127-53.85 12.75-12.9 29.775-19.3 51.1-19.3 12.873 0 24.824 3.3 35.725 9.849 10.952 6.603 19.65 15.651 26.101 27.151l-29.452 14.7c-5.6-13.45-15.3-20.202-29.002-20.202zM430.408 404.894c-47.579 47.519-105.829 71.262-174.732 71.262-68.067 0-125.696-23.743-172.855-71.262-48.389-49.153-72.582-107.307-72.582-174.489 0-67.177 24.192-124.925 72.582-173.253 48.389-48.344 106.017-72.508 172.855-72.508 67.672 0 126.328 24.373 175.961 73.108 46.739 46.289 70.122 103.842 70.122 172.653 0 68.817-23.788 126.986-71.351 174.489zM399.642 89.701c-40.603-40.141-88.385-60.209-143.35-60.209-54.958 0-102.311 19.875-142.090 59.61-39.778 39.717-59.669 86.831-59.669 141.303 0 54.478 20.084 101.997 60.283 142.541 38.55 39.328 85.708 58.994 141.476 58.994 55.791 0 103.153-19.666 142.122-58.994 39.373-38.91 59.051-86.413 59.051-142.541 0-56.527-19.274-103.43-57.824-140.703z" />
<glyph unicode="&#xe60c;" d="M486.4 409.6h-460.8c-14.131 0-25.6-11.443-25.6-25.6v-307.2c0-14.157 11.469-25.6 25.6-25.6h460.8c14.131 0 25.6 11.443 25.6 25.6v307.2c0 14.157-11.443 25.6-25.6 25.6zM460.8 102.4h-409.6v256h409.6v-256z" />
<glyph unicode="&#xe60d;" d="M409.318-3.303c0 57.498-55.987 86.759-110.515 110.259-54.349 23.399-71.706 43.111-71.706 85.351 0 25.318 16.589 17.075 23.859 63.514 3.072 19.251 17.715 0.307 20.531 44.263 0 17.51-8.013 21.862-8.013 21.862s4.070 25.933 5.658 45.901c1.639 20.915-10.189 65.536-58.906 79.232-8.499 8.729-14.259 22.579 11.955 36.454-57.344 2.663-70.681-27.341-101.222-49.408-25.984-19.353-32.999-49.997-31.744-66.304 1.664-19.968 5.709-45.901 5.709-45.901s-8.038-4.352-8.038-21.863c2.816-43.981 17.511-25.011 20.557-44.263 7.27-46.439 23.885-38.195 23.885-63.514 0-42.24-5.427-56.576-59.802-79.974-54.553-23.475-71.526-61.107-71.245-115.61 0.077-16.307-0.281-22.298-0.281-22.298h409.6c0 0-0.281 5.99-0.281 22.298zM409.6 229.402l-58.855 61.389-27.161-27.162 61.414-58.829-61.389-58.829 27.161-27.161 58.829 61.389 58.829-61.389 27.161 27.161-61.389 58.829 61.363 58.829-27.161 27.162-58.803-61.389z" />
<glyph unicode="&#xe60e;" d="M499.481 26.112l-228.019 425.779c-3.175 5.504-9.063 8.909-15.463 8.909-6.425 0-12.314-3.405-15.463-8.909l-227.994-425.779c-3.098-5.401-3.046-12.058 0.128-17.408 3.2-5.401 9.011-8.704 15.309-8.704h456.038c6.272 0 12.135 3.303 15.309 8.704 3.175 5.351 3.226 12.007 0.154 17.408zM281.6 51.2h-51.2v51.2h51.2v-51.2zM281.6 140.8h-51.2v166.4h51.2v-166.4z" />
<glyph unicode="&#xe60f;" d="M64 230.4h89.6v179.2h204.8v-179.2h89.6l-192-192-192 192z" />
<glyph unicode="&#xe610;" d="M256 422.4v-89.6h179.2v-204.8h-179.2v-89.6l-192 192 192 192z" />
<glyph unicode="&#xe611;" d="M448 230.4l-192-192v89.6h-179.2v204.8h179.2v89.6l192-192z" />
<glyph unicode="&#xe612;" d="M256 422.4l192-192h-89.6v-179.2h-204.8v179.2h-89.6l192 192z" />
<glyph unicode="&#xe613;" d="M256 38.4l-166.4 166.4h89.6v204.8h153.6v-204.8h89.6l-166.4-166.4z" />
<glyph unicode="&#xe614;" d="M64 230.4l166.4 166.4v-89.6h204.8v-153.6h-204.8v-89.6l-166.4 166.4z" />
<glyph unicode="&#xe615;" d="M256-6.4l-140.8 134.4h89.6v332.8h102.4v-332.8h89.6l-140.8-134.4z" />
<glyph unicode="&#xe616;" d="M19.2 230.4l134.4 140.8v-89.6h332.8v-102.4h-332.8v-89.6l-134.4 140.8z" />
<glyph unicode="&#xe617;" d="M358.4 89.6v89.6h-332.8v102.4h332.8v89.6l134.4-140.8-134.4-140.8z" />
<glyph unicode="&#xe618;" d="M256 467.2l140.8-134.4h-89.6v-332.8h-102.4v332.8h-89.6l140.8 134.4z" />
<glyph unicode="&#xe619;" d="M281.6 64v89.6h-204.8v153.6h204.8v89.6l166.4-166.4-166.4-166.4z" />
<glyph unicode="&#xe61a;" d="M256 422.4l166.4-166.4h-89.6v-204.8h-153.6v204.8h-89.6l166.4 166.4z" />
<glyph unicode="&#xe61b;" d="M256 476.16c-135.757 0-245.786-110.029-245.786-245.76 0-135.757 110.029-245.786 245.786-245.786 135.706 0 245.76 110.029 245.76 245.786 0 135.731-110.055 245.76-245.76 245.76zM255.975 35.84c-107.443 0-194.56 87.091-194.56 194.56s87.091 194.56 194.56 194.56 194.585-87.117 194.585-194.56-87.142-194.56-194.585-194.56zM307.2 332.8h-102.4v-102.4h-64l115.2-115.2 115.2 115.2h-64v102.4z" />
<glyph unicode="&#xe61c;" d="M256 476.16c-135.757 0-245.786-110.029-245.786-245.76 0-135.757 110.029-245.786 245.786-245.786 135.706 0 245.76 110.029 245.76 245.786 0 135.731-110.055 245.76-245.76 245.76zM255.975 35.84c-107.443 0-194.56 87.091-194.56 194.56s87.091 194.56 194.56 194.56 194.585-87.117 194.585-194.56-87.142-194.56-194.585-194.56zM256 345.6l-115.2-115.2 115.2-115.2v64h102.4v102.4h-102.4v64z" />
<glyph unicode="&#xe61d;" d="M256 476.16c-135.757 0-245.786-110.029-245.786-245.76 0-135.757 110.029-245.786 245.786-245.786 135.706 0 245.76 110.029 245.76 245.786 0 135.731-110.055 245.76-245.76 245.76zM255.975 35.84c-107.443 0-194.56 87.091-194.56 194.56s87.091 194.56 194.56 194.56 194.585-87.117 194.585-194.56-87.142-194.56-194.585-194.56zM256 281.6h-102.4v-102.4h102.4v-64l115.2 115.2-115.2 115.2v-64z" />
<glyph unicode="&#xe61e;" d="M256 476.16c-135.757 0-245.786-110.029-245.786-245.76 0-135.757 110.029-245.786 245.786-245.786 135.706 0 245.76 110.029 245.76 245.786 0 135.731-110.055 245.76-245.76 245.76zM255.975 35.84c-107.443 0-194.56 87.091-194.56 194.56s87.091 194.56 194.56 194.56 194.585-87.117 194.585-194.56-87.142-194.56-194.585-194.56zM256 345.6l115.2-115.2h-64v-102.4h-102.4v102.4h-64l115.2 115.2z" />
<glyph unicode="&#xe61f;" d="M358.4 435.2v-435.2l-102.4 102.4-102.4-102.4v435.2c0 14.157 14.976 26.112 25.6 25.6h153.6c17.639 0.512 25.6-11.443 25.6-25.6z" />
<glyph unicode="&#xe620;" d="M384 486.4h-102.4c-14.157 0-25.6-11.443-25.6-25.6l0.589-5.683c28.211 0 51.2-22.963 51.2-51.2v-290.791l25.011 30.233 76.8-92.16v409.6c0 14.157-11.443 25.6-25.6 25.6zM230.989 409.6h-102.989c-14.157 0-25.6-11.443-25.6-25.6v-409.6l76.8 92.16 76.8-92.16v409.6c0 14.157-10.855 25.6-25.011 25.6z" />
<glyph unicode="&#xe621;" d="M115.609 293.171c11.162 11.417 26.701 12.314 40.345 0l100.045-95.923 100.045 95.923c13.645 12.314 29.209 11.418 40.295 0 11.161-11.392 10.445-30.643 0-41.344-10.394-10.701-120.192-115.251-120.192-115.251-5.555-5.709-12.851-8.576-20.147-8.576s-14.592 2.867-20.198 8.576c0 0-109.747 104.551-120.192 115.251-10.471 10.701-11.162 29.952 0 41.344z" />
<glyph unicode="&#xe622;" d="M318.771 370.791c11.418-11.161 12.313-26.701 0-40.345l-95.923-100.045 95.923-100.045c12.313-13.645 11.418-29.209 0-40.295-11.392-11.161-30.643-10.445-41.344 0-10.701 10.394-115.251 120.192-115.251 120.192-5.709 5.555-8.576 12.851-8.576 20.147s2.867 14.592 8.576 20.198c0 0 104.55 109.747 115.251 120.192 10.701 10.471 29.952 11.161 41.344 0z" />
<glyph unicode="&#xe623;" d="M234.573 370.791c10.701-10.445 115.251-120.192 115.251-120.192 5.709-5.607 8.576-12.903 8.576-20.198s-2.867-14.592-8.576-20.147c0 0-104.55-109.798-115.251-120.192-10.701-10.445-29.952-11.161-41.344 0-11.417 11.111-12.314 26.649 0 40.295l95.923 100.045-95.923 100.045c-12.314 13.645-11.417 29.21 0 40.346 11.392 11.162 30.643 10.471 41.344 0z" />
<glyph unicode="&#xe624;" d="M343.501 285.21c6.938 6.861 18.151 6.861 25.037 0 6.912-6.861 6.963-17.946 0-24.807l-100.045-98.048c-6.912-6.861-18.099-6.861-25.063 0l-100.045 98.048c-6.912 6.835-6.912 17.946 0 24.807 6.938 6.861 18.15 6.861 25.037 0l87.578-80.41 87.501 80.41z" />
<glyph unicode="&#xe625;" d="M310.81 142.899c6.861-6.938 6.861-18.151 0-25.037-6.861-6.912-17.945-6.963-24.806 0l-98.048 100.045c-6.861 6.912-6.861 18.099 0 25.063l98.048 100.045c6.835 6.912 17.945 6.912 24.807 0 6.861-6.938 6.861-18.151 0-25.037l-80.409-87.578 80.409-87.501z" />
<glyph unicode="&#xe626;" d="M281.6 230.4l-80.409 87.552c-6.861 6.912-6.861 18.099 0 25.037 6.861 6.912 17.946 6.912 24.806 0l98.048-100.045c6.861-6.938 6.861-18.151 0-25.063l-98.048-100.045c-6.835-6.963-17.946-6.912-24.806 0-6.861 6.887-6.861 18.099 0 25.037l80.41 87.527z" />
<glyph unicode="&#xe627;" d="M168.499 175.59c-6.938-6.861-18.15-6.861-25.037 0s-6.963 17.945 0 24.806l100.045 98.048c6.912 6.861 18.099 6.861 25.063 0l100.045-98.048c6.912-6.835 6.912-17.945 0-24.807-6.938-6.861-18.151-6.861-25.063 0l-87.552 80.41-87.501-80.41z" />
<glyph unicode="&#xe628;" d="M445.901 330.010c6.963 6.861 18.151 6.861 25.063 0s6.938-17.946 0-24.807l-202.445-200.448c-6.912-6.861-18.099-6.861-25.063 0l-202.445 200.448c-6.912 6.861-6.912 17.945 0 24.806 6.938 6.861 18.151 6.861 25.063 0l189.926-182.81 189.901 182.81z" />
<glyph unicode="&#xe629;" d="M355.61 40.499c6.861-6.963 6.861-18.151 0-25.063s-17.945-6.938-24.807 0l-200.448 202.445c-6.861 6.912-6.861 18.099 0 25.063l200.448 202.445c6.861 6.912 17.945 6.912 24.807 0 6.861-6.938 6.861-18.15 0-25.063l-182.81-189.926 182.81-189.901z" />
<glyph unicode="&#xe62a;" d="M339.2 230.4l-182.81 189.952c-6.861 6.912-6.861 18.099 0 25.063 6.861 6.912 17.946 6.912 24.806 0l200.448-202.445c6.861-6.938 6.861-18.151 0-25.063l-200.448-202.445c-6.861-6.938-17.946-6.912-24.806 0-6.861 6.887-6.861 18.099 0 25.063l182.81 189.875z" />
<glyph unicode="&#xe62b;" d="M66.099 130.79c-6.963-6.861-18.151-6.861-25.063 0s-6.938 17.945 0 24.807l202.445 200.448c6.912 6.861 18.099 6.861 25.063 0l202.445-200.448c6.912-6.861 6.912-17.945 0-24.807-6.938-6.861-18.151-6.861-25.037 0l-189.952 182.81-189.901-182.81z" />
<glyph unicode="&#xe62c;" d="M396.39 167.629c-11.161-11.418-26.701-12.313-40.346 0l-100.045 95.923-100.045-95.923c-13.645-12.313-29.209-11.418-40.294 0-11.162 11.392-10.445 30.643 0 41.344 10.394 10.701 120.192 115.251 120.192 115.251 5.555 5.709 12.851 8.576 20.147 8.576s14.592-2.867 20.199-8.576c0 0 109.747-104.55 120.192-115.251 10.471-10.701 11.161-29.952 0-41.344z" />
<glyph unicode="&#xe62d;" d="M320.128 263.731l-64.128-58.931-64.154 58.931c-5.069 5.017-13.261 5.017-18.381 0-5.043-5.018-5.043-13.184 0-18.176l73.319-71.859c5.095-5.017 13.312-5.017 18.355 0l73.318 71.859c5.094 4.992 5.069 13.158 0 18.176-5.043 5.017-13.235 5.017-18.329 0zM256 476.16c-135.731 0-245.76-110.029-245.76-245.76 0-135.757 110.029-245.76 245.76-245.76s245.76 110.003 245.76 245.76c0 135.731-110.029 245.76-245.76 245.76zM256 16.537c-118.144 0-213.863 95.744-213.863 213.863s95.719 213.862 213.863 213.862c118.093 0 213.863-95.744 213.863-213.862s-95.769-213.863-213.863-213.863z" />
<glyph unicode="&#xe62e;" d="M289.331 312.935c-5.017 5.043-13.184 5.043-18.176 0l-71.859-73.344c-5.018-5.095-5.018-13.312 0-18.355l71.859-73.318c4.992-5.094 13.159-5.069 18.176 0 5.017 5.043 5.017 13.261 0 18.355l-58.931 64.128 58.931 64.154c5.017 5.069 5.017 13.261 0 18.381zM256 476.16c-135.731 0-245.76-110.029-245.76-245.76 0-135.757 110.029-245.76 245.76-245.76s245.76 110.003 245.76 245.76c0 135.731-110.029 245.76-245.76 245.76zM256 16.537c-118.144 0-213.863 95.744-213.863 213.863s95.719 213.862 213.863 213.862c118.093 0 213.863-95.744 213.863-213.862s-95.769-213.863-213.863-213.863z" />
<glyph unicode="&#xe62f;" d="M281.6 230.4l-58.931 64.153c-5.018 5.069-5.018 13.287 0 18.381 5.018 5.043 13.184 5.043 18.176 0l71.859-73.319c5.017-5.095 5.017-13.312 0-18.355l-71.859-73.318c-4.992-5.094-13.159-5.069-18.176 0-5.018 5.043-5.018 13.261 0 18.355l58.931 64.103zM256 476.16c135.731 0 245.76-110.029 245.76-245.76 0-135.757-110.029-245.76-245.76-245.76s-245.76 110.003-245.76 245.76c0 135.731 110.029 245.76 245.76 245.76zM256 16.537c118.093 0 213.863 95.744 213.863 213.863s-95.769 213.862-213.863 213.862c-118.144 0-213.863-95.744-213.863-213.862-0.026-118.119 95.719-213.863 213.863-213.863z" />
<glyph unicode="&#xe630;" d="M265.19 287.104c-5.094 5.017-13.312 5.017-18.355 0l-73.319-71.859c-5.095-4.992-5.069-13.159 0-18.176 5.043-5.017 13.261-5.017 18.355 0l64.128 58.931 64.154-58.931c5.069-5.017 13.261-5.017 18.381 0 5.043 5.017 5.043 13.184 0 18.176l-73.344 71.859zM256 476.16c-135.731 0-245.76-110.029-245.76-245.76 0-135.757 110.029-245.76 245.76-245.76s245.76 110.003 245.76 245.76c0 135.731-110.029 245.76-245.76 245.76zM256 16.537c-118.144 0-213.863 95.744-213.863 213.863s95.719 213.862 213.863 213.862c118.093 0 213.863-95.744 213.863-213.862s-95.769-213.863-213.863-213.863z" />
<glyph unicode="&#xe631;" d="M512 196.608c0-66.151-54.887-119.808-122.547-119.808h-296.858c-51.149 0-92.595 40.55-92.595 90.547 0 49.945 41.447 90.496 92.595 90.496 3.737 0 7.373-0.307 10.983-0.691-0.947 6.298-1.459 12.749-1.459 19.353 0 73.498 60.954 133.095 136.192 133.095 61.619 0 113.638-39.987 130.458-94.899 6.733 1.101 13.619 1.689 20.711 1.689 67.635 0 122.522-53.581 122.522-119.783z" />
<glyph unicode="&#xe632;" d="M236.647 242.688l-184.397 126.695c-14.643 9.805-26.649 2.611-26.649-16v-245.991c0-18.56 12.006-25.753 26.649-16l184.397 126.745c0 0 7.143 5.094 7.143 12.237 0 7.168-7.143 12.314-7.143 12.314zM476.16 230.374c0-7.143-7.142-12.237-7.142-12.237l-184.397-126.745c-14.643-9.753-26.649-2.56-26.649 16v245.99c0 18.611 12.007 25.805 26.649 16l184.371-126.694c0 0 7.168-5.145 7.168-12.313z" />
<glyph unicode="&#xe633;" d="M382.95 369.382l-184.397-126.694c0 0-7.143-5.145-7.143-12.313s7.143-12.263 7.143-12.263l184.397-126.745c14.643-9.728 26.649-2.534 26.649 16.026v245.99c0 18.611-12.007 25.805-26.649 16zM153.6 384h-25.6c-14.157 0-25.6-1.229-25.6-15.36v-276.48c0-14.131 11.443-15.36 25.6-15.36h25.6c14.157 0 25.6 1.229 25.6 15.36v276.48c0 14.131-11.443 15.36-25.6 15.36z" />
<glyph unicode="&#xe634;" d="M313.447 242.688l-184.397 126.695c-14.643 9.805-26.65 2.611-26.65-16v-245.991c0-18.56 12.007-25.753 26.65-16l184.397 126.745c0 0 7.142 5.094 7.142 12.237 0 7.168-7.142 12.314-7.142 12.314zM358.4 384h25.6c14.157 0 25.6-1.229 25.6-15.36v-276.48c0-14.131-11.443-15.36-25.6-15.36h-25.6c-14.157 0-25.6 1.229-25.6 15.36v276.48c0 14.131 11.443 15.36 25.6 15.36z" />
<glyph unicode="&#xe635;" d="M384 409.6h-51.2c-14.157 0-25.6-1.229-25.6-15.36v-327.68c0-14.131 11.443-15.36 25.6-15.36h51.2c14.157 0 25.6 1.229 25.6 15.36v327.68c0 14.131-11.443 15.36-25.6 15.36zM179.2 409.6h-51.2c-14.157 0-25.6-1.229-25.6-15.36v-327.68c0-14.131 11.443-15.36 25.6-15.36h51.2c14.157 0 25.6 1.229 25.6 15.36v327.68c0 14.131-11.443 15.36-25.6 15.36z" />
<glyph unicode="&#xe636;" d="M384 230.374c0-7.655-7.808-13.159-7.808-13.159l-219.161-135.757c-15.975-10.471-29.030-2.714-29.030 17.127v263.603c0 19.891 13.056 27.597 29.056 17.152l219.161-135.808c-0.026 0 7.783-5.504 7.783-13.159z" />
<glyph unicode="&#xe637;" d="M256 409.6c-98.969 0-179.2-80.205-179.2-179.2 0-98.944 80.231-179.2 179.2-179.2s179.2 80.256 179.2 179.2c0 98.995-80.231 179.2-179.2 179.2z" />
<glyph unicode="&#xe638;" d="M409.6 358.528v-251.085c0-16.921-13.721-30.643-30.618-30.643h-251.059c-14.106 0-25.523 11.418-25.523 25.523v251.059c0 16.896 13.722 30.618 30.618 30.618h251.085c14.080 0 25.498-11.418 25.498-25.472z" />
<glyph unicode="&#xe639;" d="M486.4 132.992c0-16.819-13.773-30.592-30.592-30.592h-416.563c-22.528 0-25.139 9.498-5.862 21.043l417.869 231.808c19.328 11.597 35.149 2.663 35.149-19.891v-202.368z" />
<glyph unicode="&#xe63a;" d="M199.68 230.4c0-31.104 25.242-56.32 56.346-56.32s56.295 25.241 56.295 56.32c0 31.104-25.19 56.294-56.294 56.294s-56.346-25.19-56.346-56.294z" />
<glyph unicode="&#xe63b;" d="M256.026 286.72c-31.104 0-56.346-25.216-56.346-56.32s25.242-56.32 56.346-56.32c31.104 0 56.295 25.216 56.295 56.32s-25.19 56.32-56.294 56.32zM76.826 286.72c-31.104 0-56.346-25.216-56.346-56.32s25.242-56.32 56.346-56.32c31.104 0 56.294 25.241 56.294 56.32s-25.191 56.32-56.294 56.32zM435.226 286.72c-31.104 0-56.346-25.216-56.346-56.32s25.241-56.32 56.346-56.32c31.104 0 56.294 25.216 56.294 56.32s-25.19 56.32-56.294 56.32z" />
<glyph unicode="&#xe63c;" d="M256.026 286.72c-31.104 0-56.346-25.216-56.346-56.32s25.242-56.32 56.346-56.32c31.104 0 56.295 25.216 56.295 56.32s-25.19 56.32-56.294 56.32zM256.026 353.28c31.104 0 56.295 25.242 56.295 56.32s-25.19 56.32-56.294 56.32c-31.104 0-56.346-25.216-56.346-56.32s25.242-56.32 56.346-56.32zM256.026 107.52c-31.104 0-56.346-25.216-56.346-56.32s25.242-56.32 56.346-56.32c31.104 0 56.295 25.216 56.295 56.32s-25.19 56.32-56.294 56.32z" />
<glyph unicode="&#xe63d;" d="M358.425 286.72c-31.104 0-56.346-25.216-56.346-56.32s25.241-56.32 56.346-56.32c31.104 0 56.295 25.216 56.295 56.32s-25.19 56.32-56.294 56.32zM153.625 286.72c-31.104 0-56.346-25.216-56.346-56.32s25.242-56.32 56.346-56.32c31.104 0 56.294 25.241 56.294 56.32s-25.191 56.32-56.294 56.32z" />
<glyph unicode="&#xe63e;" d="M256.026 276.48c31.104 0 56.295 25.241 56.295 56.32s-25.19 56.32-56.294 56.32c-31.104 0-56.346-25.216-56.346-56.32s25.242-56.32 56.346-56.32zM256.026 184.32c-31.104 0-56.346-25.216-56.346-56.32s25.242-56.32 56.346-56.32c31.104 0 56.295 25.216 56.295 56.32s-25.19 56.32-56.294 56.32z" />
<glyph unicode="&#xe63f;" d="M384 307.2h-76.8v153.6h-102.4v-153.6h-76.8l128-128 128 128zM495.053 139.981c-5.376 5.735-41.241 44.109-51.481 54.118-6.784 6.63-16.486 10.701-26.675 10.701h-44.979l78.438-76.647h-90.726c-2.611 0-4.966-1.331-6.144-3.405l-20.889-47.949h-153.19l-20.889 47.949c-1.178 2.074-3.559 3.405-6.144 3.405h-90.727l78.413 76.647h-44.953c-10.163 0-19.865-4.070-26.675-10.701-10.24-10.035-46.105-48.409-51.481-54.118-12.518-13.337-19.405-23.962-16.128-37.094l14.361-78.695c3.277-13.159 17.69-23.962 32.051-23.962h417.587c14.361 0 28.774 10.803 32.051 23.962l14.361 78.695c3.226 13.133-3.635 23.757-16.179 37.094z" />
<glyph unicode="&#xe640;" d="M192 236.8c21.222 0 38.4 20.045 38.4 44.8s-17.178 44.8-38.4 44.8-38.4-20.070-38.4-44.8 17.203-44.8 38.4-44.8zM256 476.16c-135.731 0-245.76-110.029-245.76-245.76s110.029-245.76 245.76-245.76c135.706 0 245.76 110.029 245.76 245.786 0 135.706-110.055 245.734-245.76 245.734zM256 35.865c-107.443 0-194.56 87.091-194.56 194.56 0 107.443 87.091 194.56 194.56 194.56s194.56-87.117 194.56-194.585c0-107.443-87.117-194.535-194.56-194.535zM367.13 196.198c-9.293 4.787-20.864 1.101-25.805-8.192-0.87-1.664-22.247-40.781-85.299-40.781-62.745 0-84.25 38.733-85.325 40.755-4.813 9.344-16.179 13.159-25.702 8.423-9.472-4.736-13.338-16.281-8.576-25.779 1.28-2.534 31.949-61.798 119.603-61.798 87.68 0 118.298 59.289 119.552 61.824 4.711 9.395 0.921 20.736-8.448 25.549zM288 262.4h64c10.599 0 19.2 8.601 19.2 19.2s-8.601 19.2-19.2 19.2h-64c-10.599 0-19.2-8.601-19.2-19.2 0-10.624 8.601-19.2 19.2-19.2z" />
<glyph unicode="&#xe641;" d="M419.84 384c0 33.945-27.495 61.44-61.44 61.44s-61.44-27.495-61.44-61.44c0-24.601 14.541-45.671 35.43-55.475-2.099-40.55-32.512-54.323-85.376-74.137-22.272-8.371-46.822-17.638-67.814-31.591v105.498c21.12 9.728 35.84 30.951 35.84 55.706 0 33.945-27.494 61.44-61.44 61.44s-61.44-27.495-61.44-61.44c0-24.755 14.745-45.977 35.84-55.706v-195.815c-21.12-9.702-35.84-30.925-35.84-55.68 0-33.945 27.495-61.44 61.44-61.44s61.44 27.52 61.44 61.44c0 24.601-14.541 45.671-35.43 55.475 2.099 40.525 32.537 54.323 85.376 74.137 51.968 19.507 116.25 43.802 118.784 121.754 21.223 9.677 36.070 30.976 36.070 55.834zM153.6 419.456c19.559 0 35.43-15.846 35.43-35.456 0-19.558-15.872-35.456-35.43-35.456-19.584 0-35.43 15.898-35.43 35.456 0 19.61 15.846 35.456 35.43 35.456zM153.6 41.344c-19.609 0-35.456 15.897-35.456 35.456 0 19.61 15.847 35.456 35.456 35.456 19.559 0 35.43-15.846 35.43-35.456 0-19.558-15.872-35.456-35.43-35.456zM358.4 348.544c-19.61 0-35.456 15.898-35.456 35.456 0 19.61 15.846 35.456 35.456 35.456 19.558 0 35.43-15.846 35.43-35.456 0-19.558-15.872-35.456-35.43-35.456z" />
<glyph unicode="&#xe642;" d="M358.4 112.64c-24.755 0-45.978-14.745-55.706-35.84h-85.094c-21.197 0-38.4 17.203-38.4 38.4v98.56c11.673-5.581 24.602-8.96 38.4-8.96h85.094c9.728-21.094 30.925-35.84 55.706-35.84 33.945 0 61.44 27.52 61.44 61.44s-27.495 61.44-61.44 61.44c-24.755 0-45.978-14.745-55.706-35.84h-85.094c-21.197 0-38.4 17.203-38.4 38.4v59.495c21.12 9.728 35.84 30.95 35.84 55.705 0 33.945-27.494 61.44-61.44 61.44s-61.44-27.495-61.44-61.44c0-24.755 14.745-45.978 35.84-55.705v-238.695c0-49.485 40.115-89.6 89.6-89.6h85.094c9.728-21.094 30.925-35.84 55.706-35.84 33.945 0 61.44 27.52 61.44 61.44s-27.495 61.44-61.44 61.44zM358.4 265.856c19.558 0 35.43-15.846 35.43-35.456 0-19.559-15.872-35.456-35.43-35.456-19.61 0-35.456 15.897-35.456 35.456 0.026 19.609 15.872 35.456 35.456 35.456zM153.6 445.056c19.559 0 35.43-15.846 35.43-35.456 0-19.559-15.872-35.456-35.43-35.456-19.584 0-35.43 15.897-35.43 35.456 0 19.609 15.846 35.456 35.43 35.456zM358.4 15.744c-19.61 0-35.456 15.897-35.456 35.456 0 19.61 15.846 35.456 35.456 35.456 19.558 0 35.43-15.846 35.43-35.456 0-19.558-15.872-35.456-35.43-35.456z" />
<glyph unicode="&#xe643;" d="M281.6 132.505v195.789c21.12 9.728 35.84 30.925 35.84 55.706 0 33.945-27.495 61.44-61.44 61.44s-61.44-27.495-61.44-61.44c0-24.755 14.745-45.977 35.84-55.706v-195.815c-21.12-9.702-35.84-30.925-35.84-55.68 0-33.945 27.494-61.44 61.44-61.44s61.44 27.52 61.44 61.44c0 24.755-14.72 45.978-35.84 55.706zM256 419.456c19.558 0 35.43-15.846 35.43-35.456 0-19.558-15.872-35.456-35.43-35.456-19.584 0-35.43 15.898-35.43 35.456 0 19.61 15.846 35.456 35.43 35.456zM256 41.344c-19.609 0-35.456 15.897-35.456 35.456 0 19.61 15.846 35.456 35.456 35.456 19.558 0 35.43-15.846 35.43-35.456 0-19.558-15.872-35.456-35.43-35.456z" />
<glyph unicode="&#xe644;" d="M215.040 384c0 33.945-27.494 61.44-61.44 61.44s-61.44-27.495-61.44-61.44c0-24.755 14.745-45.977 35.84-55.706v-195.815c-21.12-9.702-35.84-30.925-35.84-55.68 0-33.945 27.495-61.44 61.44-61.44s61.44 27.52 61.44 61.44c0 24.755-14.745 45.978-35.84 55.706v195.789c21.12 9.728 35.84 30.951 35.84 55.706zM189.030 76.8c0-19.558-15.872-35.456-35.43-35.456-19.609 0-35.456 15.897-35.456 35.456 0 19.61 15.847 35.456 35.456 35.456 19.559 0 35.43-15.846 35.43-35.456zM153.6 348.544c-19.584 0-35.43 15.898-35.43 35.456 0 19.61 15.846 35.456 35.456 35.456 19.559 0 35.43-15.846 35.43-35.456-0.025-19.558-15.898-35.456-35.456-35.456zM384 132.505v195.789c21.12 9.728 35.84 30.925 35.84 55.706 0 33.945-27.495 61.44-61.44 61.44s-61.44-27.495-61.44-61.44c0-24.755 14.745-45.977 35.84-55.706v-195.815c-21.12-9.728-35.84-30.925-35.84-55.705 0-33.945 27.495-61.44 61.44-61.44s61.44 27.52 61.44 61.44c0 24.781-14.72 46.003-35.84 55.731zM322.969 384c0 19.61 15.846 35.456 35.456 35.456 19.558 0 35.43-15.846 35.43-35.456 0-19.558-15.872-35.456-35.43-35.456-19.61 0-35.456 15.898-35.456 35.456zM358.4 41.344c-19.61 0-35.456 15.897-35.456 35.456 0 19.61 15.846 35.456 35.456 35.456 19.558 0 35.43-15.846 35.43-35.456 0-19.558-15.872-35.456-35.43-35.456z" />
<glyph unicode="&#xe645;" d="M460.8 106.905v59.495c0 49.485-40.115 89.6-89.6 89.6h-51.2c-21.197 0-38.4 17.203-38.4 38.4v59.495c21.12 9.728 35.84 30.925 35.84 55.706 0 33.945-27.495 61.44-61.44 61.44s-61.44-27.495-61.44-61.44c0-24.755 14.745-45.977 35.84-55.706v-59.495c0-21.197-17.203-38.4-38.4-38.4h-51.2c-49.485 0-89.6-40.115-89.6-89.6v-59.495c-21.12-9.728-35.84-30.95-35.84-55.706 0-33.945 27.495-61.44 61.44-61.44s61.44 27.52 61.44 61.44c0 24.755-14.745 45.978-35.84 55.706v59.495c0 21.197 17.203 38.4 38.4 38.4h51.2c13.798 0 26.726 3.379 38.4 8.96v-106.854c-21.12-9.728-35.84-30.95-35.84-55.706 0-33.945 27.494-61.44 61.44-61.44s61.44 27.52 61.44 61.44c0 24.755-14.745 45.978-35.84 55.706v106.855c11.673-5.581 24.601-8.96 38.4-8.96h51.2c21.197 0 38.4-17.203 38.4-38.4v-59.495c-21.12-9.728-35.84-30.925-35.84-55.705 0-33.945 27.495-61.44 61.44-61.44s61.44 27.52 61.44 61.44c0 24.755-14.72 45.978-35.84 55.706zM256 445.056c19.558 0 35.43-15.846 35.43-35.456 0-19.559-15.872-35.456-35.43-35.456-19.584 0-35.43 15.897-35.43 35.456 0 19.609 15.846 35.456 35.43 35.456zM76.8 15.744c-19.609 0-35.456 15.897-35.456 35.456 0 19.61 15.846 35.456 35.456 35.456 19.558 0 35.431-15.846 35.431-35.456 0-19.558-15.872-35.456-35.43-35.456zM256 15.744c-19.609 0-35.456 15.897-35.456 35.456 0 19.61 15.846 35.456 35.456 35.456 19.558 0 35.43-15.846 35.43-35.456 0-19.558-15.872-35.456-35.43-35.456zM435.2 15.744c-19.61 0-35.456 15.897-35.456 35.456 0 19.61 15.846 35.456 35.456 35.456 19.558 0 35.43-15.846 35.43-35.456 0-19.558-15.872-35.456-35.43-35.456z" />
<glyph unicode="&#xe646;" d="M487.911 207.411l-81.178 202.931c-5.99 15.027-20.531 24.858-36.711 24.858h-62.31l9.728-104.064h69.12l-130.56-108.237-130.56 108.237h69.12l9.728 104.064h-62.31c-16.179 0-30.72-9.83-36.71-24.858l-81.177-202.931c-7.373-18.457-9.549-38.579-6.297-58.163l15.104-90.599c3.175-19.072 19.661-33.050 38.989-33.050h368.205c19.328 0 35.815 13.978 38.989 33.050l15.104 90.599c3.303 19.584 1.127 39.705-6.272 58.163zM434.151 96.128c-1.843-11.161-11.495-19.328-22.81-19.328h-310.682c-11.315 0-20.966 8.166-22.809 19.328l-9.344 56.141c-2.381 14.106 8.499 26.931 22.809 26.931h329.395c14.285 0 25.165-12.825 22.81-26.931l-9.37-56.141z" />
<glyph unicode="&#xe647;" d="M236.749 189.414c11.52-8.013 26.88-8.013 38.4 0l232.653 135.194c6.042 4.199 5.376 13.261-1.229 16.537l-235.648 90.547c-9.421 4.685-20.531 4.685-29.952 0l-235.648-90.547c-6.605-3.251-7.271-12.339-1.229-16.537l232.653-135.194zM506.573 209.638l-63.642 31.565-146.56-85.171c-12.007-7.911-25.959-12.058-40.423-12.058s-28.416 4.173-40.423 12.058l-146.458 85.223-63.744-31.591c-6.605-3.277-7.271-12.339-1.229-16.538l232.653-161.51c11.52-8.013 26.88-8.013 38.4 0l232.653 161.51c6.042 4.173 5.376 13.235-1.229 16.512z" />
<glyph unicode="&#xe648;" d="M271.232 353.382l11.418-35.098c9.447 8.090 21.376 15.335 36.889 20.352 15.104 4.915 28.442 7.68 40.499 9.267l-11.008 33.869c-12.185-1.767-25.625-4.608-40.448-9.421-14.797-4.813-27.008-11.52-37.351-18.969zM294.963 280.294l11.418-35.097c9.447 8.089 21.376 15.334 36.889 20.352 15.104 4.915 28.442 7.68 40.499 9.267l-11.008 33.869c-12.185-1.767-25.625-4.608-40.448-9.421-14.797-4.787-26.983-11.495-37.351-18.97zM318.72 207.232l11.418-35.097c9.447 8.089 21.376 15.334 36.889 20.352 15.104 4.915 28.442 7.68 40.499 9.267l-11.008 33.869c-12.185-1.767-25.625-4.608-40.448-9.421-14.822-4.787-27.008-11.52-37.351-18.97zM137.933 151.629l11.008-33.869c10.675 5.786 23.091 11.392 38.195 16.281 15.513 5.043 29.415 6.195 41.805 5.197l-11.417 35.098c-12.774-0.051-26.573-1.792-41.344-6.579-14.822-4.813-27.367-10.394-38.246-16.128zM90.445 297.779l11.008-33.869c10.675 5.786 23.091 11.367 38.195 16.282 15.513 5.043 29.415 6.195 41.805 5.197l-11.392 35.123c-12.774-0.077-26.573-1.792-41.369-6.605-14.823-4.813-27.367-10.393-38.246-16.128zM114.176 224.691l11.008-33.869c10.675 5.786 23.091 11.392 38.195 16.281 15.513 5.043 29.415 6.195 41.805 5.197l-11.392 35.123c-12.774-0.051-26.573-1.792-41.344-6.579-14.822-4.813-27.392-10.419-38.272-16.154zM283.238 450.304c-44.109-14.336-67.149-44.851-78.157-65.51-21.043 10.24-57.6 21.376-101.709 7.040-64.589-20.992-101.606-67.251-101.606-67.251l104.832-322.227c3.225-9.907 16.538-12.211 22.477-3.661 12.774 18.406 37.376 42.445 83.379 57.395 43.981 14.285 76.007-1.382 93.568-14.797 6.963-5.325 16.947-1.536 19.507 6.861 6.451 21.171 23.219 52.224 66.816 66.381 46.055 14.976 80.103 9.959 101.274 2.56 9.856-3.43 19.2 6.195 16 16.103l-104.653 322.406c0 0-57.139 15.667-121.728-5.299zM280.346 95.846c-20.966 6.247-48.666 9.165-80.409-1.127-32.025-10.394-54.451-24.295-69.094-35.942l-83.072 255.539c9.165 9.165 30.387 26.675 68.147 38.938 35.558 11.545 64.717 1.664 83.942-9.677l80.486-247.731zM456.832 164.685c-18.714 0.819-45.031-1.127-77.056-11.546-31.744-10.317-52.429-28.979-65.715-46.336l-80.487 247.731c8.857 20.48 26.624 45.619 62.208 57.165 37.735 12.262 65.203 10.573 78.003 8.55l83.046-255.565z" />
<glyph unicode="&#xe649;" d="M104.96 125.44l-79.36-74.24 51.2-51.2 74.24 79.36 53.76-53.76v153.6h-153.6l53.76-53.76zM486.4 409.6l-51.2 51.2-74.24-79.36-53.76 53.76v-153.6h153.6l-53.76 53.76 79.36 74.24z" />
<glyph unicode="&#xe64a;" d="M178.867 205.133l-75.034-77.594-52.633 62.183v-164.121h163.507l-62.208 53.274 77.568 75.059-51.2 51.2zM297.293 435.2l62.208-53.273-77.568-75.059 51.2-51.2 75.034 77.593 52.633-62.183v164.122h-163.507z" />
<glyph unicode="&#xe64b;" d="M388.429 435.2h-286.029c-28.186 0-51.2-23.040-51.2-51.2v-307.2c0-28.16 23.014-51.2 51.2-51.2h307.2c28.185 0 51.2 23.040 51.2 51.2v278.349l-72.371 80.051zM358.4 281.6c0-14.055-11.52-25.6-25.6-25.6h-153.6c-14.080 0-25.6 11.546-25.6 25.6v128h204.8v-128zM332.8 384h-51.2v-102.4h51.2v102.4z" />
<glyph unicode="&#xe64c;" d="M256 460.8l-128-179.2h256l-128 179.2zM256 0l128 179.2h-256l128-179.2z" />
<glyph unicode="&#xe64d;" d="M363.546 251.034c35.558-48.205 46.541-90.035 39.911-96.691-6.656-6.605-48.461 4.352-96.717 39.911l-141.465-141.491c107.162-47.053 246.451 51.661 271.488 76.697 23.68 23.603 2.483 84.711-47.514 147.303l-25.702-25.728zM221.875 283.111c-28.135 42.445-36.633 77.389-30.566 83.456 5.965 5.99 40.96-2.457 83.379-30.643l26.189 26.24c-57.959 42.855-112.512 59.75-134.579 37.606-23.757-23.705-113.869-150.451-82.713-254.899l138.291 138.24zM474.137 448.563c-9.984 10.010-26.189 10.010-36.199 0l-400.103-400.128c-10.009-10.010-10.009-26.214 0-36.199 10.010-10.010 26.189-10.010 36.198 0l400.102 400.128c10.010 10.009 10.010 26.214 0 36.198z" />
<glyph unicode="&#xe64e;" d="M135.987 369.51c-28.723-28.646-154.291-207.744-45.798-316.211 108.441-108.493 287.488 17.101 316.263 45.798 28.697 28.647-8.576 112.512-83.251 187.187-74.726 74.726-158.489 112.026-187.213 83.226zM373.146 124.006c-8.499-8.397-74.112 11.699-137.319 74.957-63.155 63.207-83.353 128.845-74.855 137.293 8.397 8.499 74.087-11.699 137.216-74.905 63.257-63.155 83.405-128.845 74.957-137.344zM395.111 333.261l48.743 48.793c10.010 10.010 10.010 26.189 0 36.199-9.984 10.010-26.189 10.010-36.199 0l-48.743-48.793c-10.010-10.010-10.010-26.214 0-36.199 9.984-9.984 26.189-9.984 36.199 0zM284.774 389.12c12.365-6.861 27.93-2.432 34.816 9.933l27.827 49.305c6.861 12.365 2.432 27.93-9.933 34.816-12.339 6.887-27.93 2.432-34.816-9.933l-27.827-49.305c-6.861-12.39-2.406-27.981 9.933-34.816zM508.723 311.911c-6.835 12.365-22.451 16.819-34.816 9.933l-49.664-27.161c-12.365-6.861-16.819-22.477-9.933-34.816 6.861-12.365 22.451-16.819 34.816-9.933l49.664 27.162c12.365 6.886 16.819 22.451 9.933 34.816z" />
<glyph unicode="&#xe64f;" d="M86.758 304.307l28.186-279.245c1.561-11.801 58.547-50.611 141.056-50.663 82.56 0.051 139.546 38.861 141.082 50.663l28.211 279.245c-43.111-24.115-107.546-35.507-169.293-35.507-61.696 0-126.157 11.392-169.242 35.507zM337.101 447.744l-21.99 24.345c-8.499 12.109-17.715 14.31-35.661 14.31h-46.874c-17.92 0-27.161-2.201-35.635-14.31l-21.99-24.345c-65.792-11.495-113.51-41.984-113.51-64.487v-4.352c0-39.603 87.117-71.705 194.56-71.705 107.469 0 194.586 32.103 194.586 71.705v4.352c0 22.502-47.693 52.992-113.485 64.486zM308.992 375.296l-27.392 34.304h-51.2l-27.341-34.304h-43.52c0 0 47.667 56.858 54.042 64.563 4.864 5.888 9.831 8.141 16.281 8.141h52.301c6.477 0 11.443-2.253 16.307-8.141 6.349-7.705 54.041-64.563 54.041-64.563h-43.52z" />
<glyph unicode="&#xe650;" d="M128 332.8h256l-128-230.4-128 230.4z" />
<glyph unicode="&#xe651;" d="M358.4 358.4v-256l-230.4 128 230.4 128z" />
<glyph unicode="&#xe652;" d="M384 230.4l-230.4-128v256l230.4-128z" />
<glyph unicode="&#xe653;" d="M384 128h-256l128 230.4 128-230.4z" />
<glyph unicode="&#xe654;" d="M487.911 207.411l-81.178 202.931c-5.99 15.027-20.531 24.858-36.711 24.858h-228.045c-16.179 0-30.72-9.831-36.71-24.858l-81.177-202.931c-7.373-18.457-9.549-38.579-6.297-58.163l15.104-90.599c3.175-19.072 19.661-33.050 38.989-33.050h368.205c19.328 0 35.815 13.978 38.989 33.050l15.104 90.599c3.303 19.584 1.127 39.705-6.272 58.163zM141.312 363.879l41.959 28.979 73.421-51.481 73.421 51.481 41.959-28.979-73.447-52.045 74.957-52.736-41.959-29.977-74.931 53.145-74.931-53.145-41.959 29.977 74.957 52.736-73.447 52.045zM434.151 96.128c-1.843-11.161-11.495-19.328-22.81-19.328h-310.682c-11.315 0-20.966 8.166-22.809 19.328l-9.344 56.141c-2.381 14.106 8.499 26.931 22.809 26.931h329.395c14.285 0 25.165-12.825 22.81-26.931l-9.37-56.141z" />
<glyph unicode="&#xe655;" d="M389.453 316.442c-7.065 0-13.978-0.64-20.711-1.741-16.793 54.912-68.813 94.899-130.432 94.899-75.239 0-136.192-59.597-136.192-133.095 0-6.553 0.512-13.005 1.459-19.353-3.609 0.435-7.245 0.691-10.983 0.691-51.149 0-92.595-40.499-92.595-90.496s41.447-90.547 92.595-90.547h112.205v102.4h-64l115.2 128 115.2-128h-64v-102.4h82.253c67.661 0 122.547 53.658 122.547 119.808 0 66.202-54.887 119.834-122.547 119.834z" />
<glyph unicode="&#xe656;" d="M204.8 179.2h102.4v153.6h76.8l-128 128-128-128h76.8v-153.6zM495.053 139.981c-5.376 5.735-41.241 44.109-51.481 54.118-6.784 6.63-16.486 10.701-26.675 10.701h-44.979l78.438-76.647h-90.726c-2.611 0-4.966-1.331-6.144-3.405l-20.889-47.949h-153.19l-20.889 47.949c-1.178 2.074-3.559 3.405-6.144 3.405h-90.727l78.413 76.647h-44.953c-10.163 0-19.865-4.070-26.675-10.701-10.24-10.035-46.105-48.409-51.481-54.118-12.518-13.337-19.405-23.962-16.128-37.094l14.361-78.695c3.277-13.159 17.69-23.962 32.051-23.962h417.587c14.361 0 28.774 10.803 32.051 23.962l14.361 78.695c3.226 13.133-3.635 23.757-16.179 37.094z" />
<glyph unicode="&#xe657;" d="M409.318-3.303c0.281 54.502-55.962 86.759-110.515 110.259-54.349 23.399-71.706 43.111-71.706 85.351 0 25.318 16.589 17.075 23.859 63.514 3.072 19.251 17.715 0.307 20.531 44.263 0 17.51-8.013 21.862-8.013 21.862s4.070 25.933 5.658 45.901c1.639 20.915-10.189 65.536-58.906 79.232-8.499 8.729-14.259 22.579 11.955 36.454-57.344 2.663-70.681-27.341-101.222-49.408-25.984-19.353-32.999-49.997-31.744-66.304 1.664-19.968 5.709-45.901 5.709-45.901s-8.038-4.352-8.038-21.863c2.816-43.981 17.511-25.011 20.557-44.263 7.27-46.439 23.885-38.195 23.885-63.514 0-42.24-5.427-56.576-59.802-79.974-54.553-23.475-71.526-61.107-71.245-115.61 0.077-16.307-0.281-22.298-0.281-22.298h409.6c0 0-0.358 5.99-0.281 22.298zM435.2 230.4v76.8h-51.2v-76.8h-76.8v-51.2h76.8v-76.8h51.2v76.8h76.8v51.2h-76.8z" />
<glyph unicode="&#xe658;" d="M506.854 354.176l-60.8 46.848c-3.456 2.381-8.294 4.505-13.337 6.067-5.069 1.562-10.317 2.509-14.515 2.509h-175.001l20.506-128h154.496c4.199 0 9.447 0.947 14.49 2.509s9.907 3.712 13.337 6.041l60.8 46.899c3.456 2.33 5.171 5.427 5.171 8.551s-1.715 6.221-5.146 8.576zM217.6 460.8h-25.6c-7.065 0-12.8-5.735-12.8-12.8v-89.6h-85.401c-4.249 0-9.472-0.947-14.515-2.534-5.069-1.536-9.907-3.661-13.338-6.042l-60.8-46.848c-3.456-2.33-5.146-5.453-5.146-8.576 0-3.097 1.69-6.195 5.146-8.576l60.8-46.899c3.43-2.329 8.269-4.48 13.338-6.016 5.043-1.561 10.266-2.509 14.515-2.509h85.401v-217.6c0-7.065 5.734-12.8 12.8-12.8h25.6c7.066 0 12.8 5.735 12.8 12.8v435.2c0 7.066-5.734 12.8-12.8 12.8z" />
<glyph unicode="&#xe659;" d="M486.4 250.906c-4.659 0-20.454 0-25.088 0-14.157 0-25.6-9.191-25.6-20.506 0-11.29 11.443-20.455 25.6-20.455 4.659 0 20.454 0 25.088 0 14.131 0 25.6 9.139 25.6 20.455 0 11.29-11.495 20.506-25.6 20.506zM256 371.2c-78.106 0-140.8-62.695-140.8-140.8s62.695-140.8 140.8-140.8c78.080 0 140.8 62.695 140.8 140.8s-62.745 140.8-140.8 140.8zM256 128c-56.601 0-102.4 45.849-102.4 102.4 0 56.602 45.798 102.4 102.4 102.4v-204.8zM76.8 230.4c0 11.29-11.495 20.506-25.6 20.506-4.736 0-20.89 0-25.6 0-14.157 0-25.6-9.191-25.6-20.506 0-11.29 11.443-20.455 25.6-20.455 4.71 0 20.864 0 25.6 0 14.105 0 25.6 9.165 25.6 20.455zM256 409.6c11.289 0 20.454 11.443 20.454 25.6 0 4.711 0 20.889 0 25.6 0 14.157-9.165 25.6-20.454 25.6-11.315 0-20.506-11.443-20.506-25.6 0-4.711 0-20.889 0-25.6 0-14.157 9.191-25.6 20.506-25.6zM256 51.2c-11.315 0-20.506-11.443-20.506-25.6 0-4.711 0-20.889 0-25.6 0-14.157 9.191-25.6 20.506-25.6 11.289 0 20.454 11.443 20.454 25.6 0 4.711 0 20.889 0 25.6 0 14.157-9.165 25.6-20.454 25.6zM444.544 389.99c10.010 10.010 11.623 24.601 3.635 32.589s-22.605 6.349-32.563-3.661c-2.765-2.739-15.181-15.155-17.92-17.894-10.010-10.010-11.623-24.601-3.635-32.589s22.605-6.349 32.589 3.661c2.739 2.765 15.13 15.155 17.894 17.894zM85.35 88.755c-2.765-2.791-15.181-15.207-17.92-17.945-10.010-10.010-11.623-24.55-3.635-32.538s22.605-6.4 32.563 3.61c2.765 2.739 15.181 15.155 17.92 17.894 10.010 10.010 11.623 24.601 3.635 32.615s-22.605 6.323-32.563-3.635zM96.384 418.944c-9.984 10.010-24.602 11.648-32.589 3.661s-6.349-22.605 3.609-32.615c2.765-2.739 15.181-15.155 17.92-17.894 10.010-10.010 24.576-11.648 32.563-3.661s6.374 22.605-3.609 32.589c-2.739 2.765-15.129 15.181-17.895 17.92zM397.671 59.75c2.765-2.739 15.181-15.155 17.92-17.894 10.010-10.010 24.576-11.597 32.563-3.661 7.987 7.987 6.375 22.605-3.635 32.589-2.739 2.739-15.155 15.155-17.894 17.894-10.010 10.010-24.601 11.648-32.615 3.661s-6.349-22.579 3.661-32.589z" />
<glyph unicode="&#xe65a;" d="M67.661 323.661c44.723 38.4 80.051 68.762 175.923 14.592 46.055-26.010 83.2-35.84 114.099-35.789 54.144 0 89.241 30.106 119.577 56.141 10.829 9.293 12.211 25.805 3.123 36.839-9.139 11.059-25.267 12.493-36.096 3.2-44.697-38.451-80.051-68.813-175.923-14.592-126.669 71.501-186.010 20.557-233.677-20.403-10.803-9.293-12.185-25.753-3.098-36.838 9.113-11.008 25.241-12.467 36.070-3.149zM444.288 267.904c-44.697-38.4-80.051-68.813-175.923-14.592-126.669 71.552-186.010 20.583-233.677-20.352-10.803-9.293-12.211-25.805-3.098-36.839 9.088-11.059 25.241-12.493 36.070-3.2 44.723 38.426 80.051 68.787 175.923 14.643 46.055-26.061 83.2-35.84 114.099-35.84 54.144 0 89.241 30.106 119.577 56.192 10.829 9.293 12.211 25.805 3.123 36.813-9.113 11.085-25.267 12.467-36.096 3.175zM444.288 137.19c-44.697-38.451-80.051-68.813-175.923-14.643-126.669 71.552-186.010 20.608-233.677-20.352-10.803-9.293-12.211-25.805-3.098-36.839 9.088-11.059 25.241-12.442 36.070-3.149 44.723 38.4 80.051 68.736 175.923 14.592 46.055-26.010 83.2-35.84 114.099-35.84 54.144 0 89.241 30.157 119.577 56.192 10.829 9.293 12.211 25.805 3.123 36.839-9.113 11.059-25.267 12.467-36.096 3.2z" />
<glyph unicode="&#xe65b;" d="M480.051 75.827c-2.483-6.81-21.043-25.651-154.343 22.477l-130.688 47.181c-45.491 16.409-109.517 42.214-134.605 56.755-17.561 10.163-21.401 32.819-21.401 32.819s-4.173 75.673-6.733 94.311c-2.56 18.637 2.432 21.837 20.378 12.595 11.162-5.76 47.744-65.587 63.079-91.315 38.707-9.754 73.267-19.482 89.421-24.294-6.579 43.955-18.944 126.157-23.373 151.885-4.25 24.653 14.080 13.696 14.080 13.696 8.474-4.864 25.165-16.921 30.874-25.651 38.963-59.545 94.003-168.96 98.202-177.357 22.938-7.168 58.291-18.765 79.411-26.368 55.194-19.942 79.027-77.671 75.699-86.733z" />
<glyph unicode="&#xe65c;" d="M508.672 321.203c3.046-6.579 3.251-33.024-125.031-93.235l-125.773-59.034c-43.776-20.557-107.29-47.591-135.296-55.065-19.609-5.223-38.323 8.089-38.323 8.089s-56.474 50.56-71.475 61.926c-14.976 11.366-13.696 17.152 5.504 23.296 11.955 3.815 80.128-12.621 109.184-19.968 34.279 20.48 65.587 38.042 80.409 46.029-35.738 26.445-102.605 75.827-123.93 90.88-20.454 14.464 0.256 19.661 0.256 19.661 9.421 2.535 29.747 5.837 39.987 3.687 69.657-14.567 185.933-53.018 194.842-55.962 21.299 11.161 54.477 27.955 74.803 37.504 53.12 24.934 110.771 0.947 114.841-7.808z" />
<glyph unicode="&#xe65d;" d="M319.897 40.601c-10.087 28.058-46.208 122.24-61.184 161.203-28.237-18.867-59.75-36.736-89.907-49.357-9.369-32.768-28.006-94.951-37.017-103.245-15.463-14.259-21.299-12.416-23.68 7.142s-12.416 82.841-12.416 82.841-55.347 31.207-72.704 40.141-17.075 15.13 1.459 24.935c10.803 5.709 74.931 2.176 108.595-0.128 22.042 24.346 49.434 48.179 76.621 68.582-31.104 27.546-106.24 94.080-128.87 113.255-19.865 16.845 2.022 20.403 2.022 20.403 9.984 1.792 31.283 3.379 41.677 0.231 64.615-19.533 164.915-52.941 188.493-60.826 9.037 6.375 18.867 13.312 29.747 21.018 120.371 85.248 150.707 66.381 156.441 58.112s12.877-43.545-107.495-128.819c-10.88-7.706-20.685-14.669-29.696-21.069-0.743-25.088-4.019-131.866-7.962-199.962-0.64-10.957-9.395-30.669-14.464-39.526-0.026 0-10.829-19.584-19.661 5.069z" />
<glyph unicode="&#xe65e;" d="M332.8 204.8h-51.2v204.8h-51.2v-204.8h-51.2l76.8-76.8 76.8 76.8zM445.44 102.4h-378.88c-14.131 0-15.36-11.443-15.36-25.6s1.229-25.6 15.36-25.6h378.88c14.131 0 15.36 11.443 15.36 25.6s-1.229 25.6-15.36 25.6z" />
<glyph unicode="&#xe65f;" d="M204.8 230.4l-76.8 76.8v-51.2h-102.4v-51.2h102.4v-51.2l76.8 76.8zM384 153.6v51.2h102.4v51.2h-102.4v51.2l-76.8-76.8 76.8-76.8zM256 25.6c14.157 0 25.6 1.255 25.6 15.36v378.88c0 14.157-11.443 15.36-25.6 15.36-14.131 0-25.6-1.203-25.6-15.36v-378.88c0-14.106 11.469-15.36 25.6-15.36z" />
<glyph unicode="&#xe660;" d="M153.6 230.4l76.8-76.8v51.2h204.8v51.2h-204.8v51.2l-76.8-76.8zM102.4 435.2c-14.157 0-25.6-1.203-25.6-15.36v-378.88c0-14.106 11.443-15.36 25.6-15.36 14.131 0 25.6 1.255 25.6 15.36v378.88c0 14.157-11.469 15.36-25.6 15.36z" />
<glyph unicode="&#xe661;" d="M281.6 307.2v-51.2h-204.8v-51.2h204.8v-51.2l76.8 76.8-76.8 76.8zM384 419.84v-378.88c0-14.106 11.469-15.36 25.6-15.36 14.157 0 25.6 1.255 25.6 15.36v378.88c0 14.157-11.443 15.36-25.6 15.36-14.131 0-25.6-1.203-25.6-15.36z" />
<glyph unicode="&#xe662;" d="M256 332.8l-76.8-76.8h51.2v-204.8h51.2v204.8h51.2l-76.8 76.8zM460.8 384c0 14.157-1.229 25.6-15.36 25.6h-378.88c-14.131 0-15.36-11.443-15.36-25.6s1.229-25.6 15.36-25.6h378.88c14.131 0 15.36 11.443 15.36 25.6z" />
<glyph unicode="&#xe663;" d="M256 179.2l-76.8-76.8h51.2v-102.4h51.2v102.4h51.2l-76.8 76.8zM332.8 358.4h-51.2v102.4h-51.2v-102.4h-51.2l76.8-76.8 76.8 76.8zM460.8 230.4c0 14.157-1.229 25.6-15.36 25.6h-378.88c-14.131 0-15.36-11.443-15.36-25.6 0-14.106 1.229-25.6 15.36-25.6h378.88c14.131 0 15.36 11.495 15.36 25.6z" />
<glyph unicode="&#xe664;" d="M357.913 435.2h-203.853c0 0-25.498 0-25.498-25.6h254.848c0 25.6-25.498 25.6-25.498 25.6zM434.381 358.4c0 25.6-25.472 25.6-25.472 25.6h-305.817c0 0-25.472 0-25.472-25.6v-25.6h356.761v25.6zM485.325 332.8c-15.053 15.155-15.053 15.155-15.053 15.155v-40.755h-428.544v40.755c0 0 0 0-15.078-15.155s-25.881-19.2-19.814-51.2c6.041-31.898 35.303-206.746 39.654-230.4 4.761-25.959 31.155-25.6 31.155-25.6h356.762c0 0 26.368-0.358 31.155 25.6 4.352 23.654 33.587 198.503 39.654 230.4 6.016 32-4.787 36.045-19.891 51.2zM358.4 179.277c0-14.183-11.495-25.677-25.677-25.677h-153.446c-14.183 0-25.677 11.495-25.677 25.677v51.123h25.6v-51.2h153.6v51.2h25.6v-51.123z" />
<glyph unicode="&#xe665;" d="M512 435.2v-409.6h-503.808c-8.141 0-10.649 5.351-5.529 11.904l114.406 147.149c5.094 6.553 14.157 7.245 20.199 1.587l36.327-34.151c6.016-5.658 14.643-4.557 19.123 2.457l78.003 121.344c4.48 6.989 13.031 7.987 18.969 2.304l55.577-53.657c5.939-5.76 14.31-4.608 18.534 2.56l131.405 199.296c4.25 7.219 10.394 8.807 16.793 8.807z" />
<glyph unicode="&#xe666;" d="M143.411-20.48c-33.101 0-64.103 14.208-86.477 36.864-43.392 43.93-55.475 120.601 5.35 182.17 35.609 36.045 178.329 180.557 249.549 252.672 25.293 25.6 57.472 35.507 88.269 27.136 30.285-8.192 55.065-33.305 63.181-63.949 8.243-31.232-1.51-63.821-26.777-89.421l-238.669-241.664c-13.619-13.798-29.030-21.965-44.493-23.603-15.334-1.639-29.952 3.328-40.192 13.696-18.535 18.841-21.197 54.195 9.677 85.427l167.629 169.728c6.887 6.963 18.048 6.963 24.935 0s6.887-18.279 0-25.241l-167.655-169.754c-14.489-14.643-15.821-28.647-9.651-34.918 2.714-2.714 6.809-3.968 11.546-3.43 7.245 0.743 15.513 5.529 23.27 13.337l238.669 241.639c16.384 16.589 22.656 36.096 17.664 54.912-4.915 18.56-19.917 33.741-38.221 38.733-18.586 5.043-37.888-1.331-54.272-17.92-71.219-72.141-213.913-216.627-249.549-252.672-46.489-47.079-35.353-101.274-5.35-131.661 30.029-30.387 83.507-41.702 130.022 5.427l249.549 252.672c6.887 6.963 18.048 6.963 24.935 0s6.887-18.279 0-25.267l-249.549-252.672c-29.415-29.747-62.362-42.24-93.389-42.24z" />
<glyph unicode="&#xe667;" d="M424.295 68.147c-19.379 26.906-72.986 97.894-116.992 156.314 17.817 25.575 32.026 46.464 38.528 57.395 39.552 66.406 22.375 109.056 0.563 145.152-21.863 36.121-25.318 56.986-90.394 56.986-65.101 0-68.557-20.864-90.394-57.011-21.863-36.096-39.014-78.745 0.537-145.152 6.502-10.905 20.71-31.821 38.554-57.395-44.032-58.394-97.638-129.408-117.017-156.314-4.505-6.247-4.096-16.998 0.231-27.699 3.328-8.243 16.128-45.107 19.251-52.839 3.993-9.959 16.998-17.152 27.699-2.355 6.169 8.55 66.099 90.24 121.139 166.963 55.014-76.697 114.969-158.413 121.139-166.963 10.675-14.797 23.706-7.603 27.699 2.355 3.123 7.757 15.923 44.595 19.251 52.839 4.275 10.726 4.711 21.478 0.205 27.725zM246.631 305.587c-27.341 37.99-46.899 82.202-46.899 82.202s10.752 19.405 56.269 19.405c45.517 0 56.269-19.405 56.269-19.405s-19.61-44.211-46.925-82.202c-2.253-3.097-5.581-7.603-9.344-12.723-3.815 5.12-7.143 9.625-9.369 12.723z" />
<glyph unicode="&#xe668;" d="M281.6 440.346c-113.792 0-206.362-91.187-209.126-204.697v-5.248h-60.723l92.007-99.687 89.446 99.687h-68.403v5.248c2.739 84.557 71.885 152.192 156.8 152.192 86.682 0 156.953-70.502 156.953-157.44s-70.272-157.44-156.953-157.44c-34.739 0-66.841 11.392-92.851 30.541l-35.993-38.502c35.533-27.853 80.256-44.493 128.845-44.493 115.584 0 209.255 93.952 209.255 209.895s-93.671 209.946-209.255 209.946zM256 358.4v-128c0-3.328 0.691-6.656 1.971-9.779 1.305-3.123 3.175-5.965 5.529-8.32l81.92-81.92c7.245 4.685 14.080 9.959 20.147 16.077l-58.368 58.342v153.6h-51.2z" />
<glyph unicode="&#xe669;" d="M486.4 307.2v-153.6c0-28.237-22.938-51.2-51.2-51.2h-358.4v76.8h332.8v102.4h-281.6v-51.2l-102.4 89.6 102.4 89.6v-51.2h307.2c28.262 0 51.2-22.937 51.2-51.2z" />
<glyph unicode="&#xe66a;" d="M435.2 460.8h-51.2c-14.131 0-25.6-11.443-25.6-25.6v-434.995h102.4v434.995c0 14.157-11.443 25.6-25.6 25.6zM281.6 307.2h-51.2c-14.131 0-25.6-11.443-25.6-25.6v-281.395h102.4v281.395c0 14.157-11.443 25.6-25.6 25.6zM128 153.6h-51.2c-14.131 0-25.6-11.443-25.6-25.6v-127.795h102.4v127.795c0 14.157-11.443 25.6-25.6 25.6z" />
<glyph unicode="&#xe66b;" d="M394.445 230.4c0 70.81 32.691 110.592 58.291 110.592 9.293 0 33.664 0 33.664 0-17.101 27.111-31.257 43.008-93.645 43.008h-256.205c-95.591 0-136.55-88.090-136.55-153.6s40.96-153.6 136.55-153.6h256.205c62.413 0 76.544 15.897 93.645 43.008 0 0-8.064 0-33.664 0s-58.291 39.782-58.291 110.592zM324.813 184.448c-4.199-6.4-17.305-0.409-17.305-0.409l-75.699 34.253c0 0-6.758-17.152-11.955-29.209-5.248-12.058-9.242-25.702-30.951-10.445-21.734 15.309-91.674 83.2-91.674 83.2s-8.832 7.271-4.429 14.106c4.173 6.451 17.305 0.41 17.305 0.41l75.674-34.202c0 0 6.784 17.101 11.981 29.159 5.248 12.032 9.242 25.753 30.951 10.445 21.734-15.257 91.648-83.2 91.648-83.2s8.832-7.245 4.454-14.106zM483.175 283.443h-19.175c-14.31 0-28.288-19.303-28.288-50.662 0-31.411 14.003-50.688 28.288-50.688h19.175c14.336 0 28.825 19.303 28.825 50.688 0 31.36-14.49 50.662-28.825 50.662z" />
<glyph unicode="&#xe66c;" d="M435.2 460.8l-0.051-332.8c0-31.821-33.305-76.8-95.949-76.8-31.821 0-57.6 16.717-57.6 48 0 40.678 36.992 65.28 76.8 65.28 11.059 0 19.303-1.51 25.6-3.149v187.75l-179.2-32.589v-239.693h-0.051c0-31.821-33.305-76.8-95.949-76.8-31.821 0-57.6 16.717-57.6 48 0 40.678 36.992 65.28 76.8 65.28 11.059 0 19.303-1.51 25.6-3.149v299.469l281.6 51.2z" />
<glyph unicode="&#xe66d;" d="M375.040 268.493c-58.368 125.619-88.729 173.337-184.089 171.341-33.971-0.691-25.831 24.627-51.738 15.027-25.856-9.6-3.661-23.654-30.131-45.389-74.291-61.005-67.456-117.427-32.999-251.904 14.515-56.653-34.995-59.418-15.411-114.304 14.311-40.038 119.782-56.807 231.040-15.539 111.283 41.293 181.401 123.238 167.091 163.277-19.584 54.912-59.161 24.601-83.763 77.491zM279.654 61.568c-99.379-36.864-181.043-15.207-184.499-5.555-5.939 16.64 32.077 72.089 145.69 114.253s177.024 26.522 183.655 7.962c3.917-10.983-45.44-79.769-144.845-116.659zM247.706 151.014c-51.942-19.277-88.038-41.318-111.437-61.159 16.461-14.95 47.283-18.586 77.978-7.193 39.091 14.464 63.13 47.769 53.632 74.342-0.128 0.333-0.281 0.589-0.409 0.921-6.425-2.099-13.005-4.377-19.763-6.912z" />
<glyph unicode="&#xe66e;" d="M64.999-25.6h88.602l35.993 94.669-75.93 25.702-48.665-120.371zM322.406 69.069l35.993-94.669h88.601l-48.666 120.371-75.93-25.702zM460.8 435.2h-166.4l-12.8 51.2h-51.2l-12.8-51.2h-166.4c-14.157 0-25.6-11.443-25.6-25.6v-281.6c0-14.131 11.443-25.6 25.6-25.6h409.6c14.157 0 25.6 11.469 25.6 25.6v281.6c0 14.131-11.443 25.6-25.6 25.6z" />
<glyph unicode="&#xe66f;" d="M256 476.16c-135.757 0-245.786-110.029-245.786-245.76 0-135.757 110.029-245.786 245.786-245.786 135.706 0 245.76 110.029 245.76 245.786 0 135.731-110.055 245.76-245.76 245.76zM61.414 230.4c0 107.443 87.091 194.56 194.56 194.56 46.823 0 89.754-16.563 123.315-44.109l-273.767-273.767c-27.546 33.587-44.109 76.493-44.109 123.315zM255.975 35.865c-46.797 0-89.728 16.538-123.264 44.083l273.767 273.741c27.52-33.587 44.083-76.467 44.083-123.289 0-107.443-87.142-194.535-194.585-194.535z" />
<glyph unicode="&#xe670;" d="M435.2 334.080v-264.986c0-13.363-11.571-19.738-25.6-29.696-11.264-8.013-25.6 1.92-25.6 15.027 0 0 0 253.568 0 258.918 0 5.402-1.894 10.547-8.038 13.696s-198.093 104.064-198.093 104.064c-3.097 1.152-16.614 9.677-34.637 0.41-17.126-8.807-26.445-18.381-28.826-22.887l209.408-114.739c5.555-2.918 8.986-7.424 8.986-13.209v-276.531c0-5.888-3.635-12.185-9.447-14.976-2.663-1.331-5.606-1.971-8.525-1.971-3.456 0-6.938 0.845-9.882 2.663-5.504 3.353-199.014 122.010-211.789 129.715-6.144 3.687-13.338 11.238-13.491 16.845l-2.867 263.322c0 5.069-0.589 14.003 7.398 26.419 17.843 27.75 80.103 59.315 111.616 42.957l230.375-116.608c5.555-2.867 9.011-8.601 9.011-18.432z" />
<glyph unicode="&#xe671;" d="M433.894 295.117c-55.706-74.291-104.832-76.851-180.377-80.691h-2.585c-91.929 0.051-157.133 34.202-157.133 46.899-0.051 12.058 58.829 43.443 143.488 46.566l15.104 37.709c-0.487 0-0.947 0.051-1.459 0.051-125.645 0-199.45-39.987-199.45-78.106v-51.2c0-23.501 14.899-229.094 194.099-229.094s204.8 205.594 204.8 229.095v51.2c0 10.010-5.146 20.147-14.95 29.645l-1.536-2.073zM450.279 417.229c-11.289 8.448-27.366 6.195-35.815-5.146l-92.365-123.111 59.801 149.453c5.274 13.107-1.127 28.007-14.259 33.305-13.005 5.248-28.058-1.101-33.28-14.31l-83.43-208.435c73.779 3.763 109.491 5.811 155.315 66.841 45.798 61.107 49.127 65.562 49.127 65.562 8.499 11.289 6.221 27.341-5.094 35.84z" />
<glyph unicode="&#xe672;" d="M471.014 435.2h-430.055c-8.499 0-15.36-6.835-15.36-15.36v-61.44h460.8v61.44c0 8.525-6.912 15.36-15.385 15.36zM51.2 61.44c0-19.712 16.103-35.84 35.814-35.84h337.92c19.712 0 35.84 16.154 35.84 35.84v271.36h-409.575v-271.36zM179.2 281.6h153.6v-51.2h-153.6v51.2z" />
<glyph unicode="&#xe673;" d="M230.4 230.4h51.2v-51.2h230.4c0 0-3.815 114.151-5.12 149.863-1.28 33.946-13.44 54.938-51.2 54.938h-82.125c-12.723 24.013-26.419 49.792-30.643 57.754-8.474 15.949-11.366 19.046-30.183 19.046h-113.485c-18.816 0-21.683-3.097-30.183-19.046-4.224-7.962-17.92-33.741-30.618-57.754h-82.15c-37.785 0-49.792-20.992-51.2-54.938-1.383-33.971-5.095-149.863-5.095-149.863h230.4v51.2zM195.815 411.75c5.888 11.059 7.885 13.209 20.915 13.209h78.515c13.031 0 15.053-2.15 20.889-13.209 2.202-4.096 8.141-15.36 14.72-27.75h-149.76c6.579 12.39 12.518 23.654 14.72 27.75zM281.6 102.4h-51.2v51.2h-217.6c0 0 3.175-46.003 5.095-85.043 0.794-16.205 5.581-42.957 46.080-42.957h384.026c40.499 0 45.184 26.803 46.080 42.957 2.227 40.141 5.12 85.043 5.12 85.043h-217.6v-51.2z" />
<glyph unicode="&#xe674;" d="M460.8 435.2h-409.6c-28.16 0-51.2-23.040-51.2-51.2v-307.2c0-28.16 23.040-51.2 51.2-51.2h409.6c28.16 0 51.2 23.040 51.2 51.2v307.2c0 28.16-23.040 51.2-51.2 51.2zM115.2 390.4c10.599 0 19.2-8.601 19.2-19.2s-8.602-19.2-19.2-19.2c-10.599 0-19.2 8.601-19.2 19.2s8.602 19.2 19.2 19.2zM44.8 371.2c0 10.599 8.602 19.2 19.2 19.2s19.2-8.601 19.2-19.2c0-10.599-8.602-19.2-19.2-19.2s-19.2 8.601-19.2 19.2zM460.8 76.8h-409.6v230.4h409.6v-230.4zM460.8 358.4h-307.2v25.6h307.687l-0.486-25.6z" />
<glyph unicode="&#xe675;" d="M70.733 139.187c-38.784-38.093-6.016-77.209-57.523-135.142-23.245-26.189 95.693-18.202 154.599 39.706 25.011 24.601 17.946 60.39-8.857 86.759-26.803 26.317-63.232 33.28-88.218 8.678zM500.199 469.529c-19.865 19.559-240.103-156.902-305.639-221.337-32.537-32-43.392-49.152-53.351-61.952-4.352-5.606 1.408-7.296 3.942-8.601 12.903-6.605 21.913-12.697 33.561-24.141 11.673-11.443 17.894-20.301 24.55-32.998 1.357-2.509 3.097-8.141 8.755-3.891 13.056 9.805 30.489 20.505 63.027 52.454 65.561 64.41 245.069 280.935 225.152 300.467z" />
<glyph unicode="&#xe676;" d="M281.6 460.8c-125.645 0-204.749-40.755-199.424-75.52 1.536-9.958 5.76-49.792 11.111-83.789-61.568-23.91-81.971-62.694-79.232-94.31 3.251-37.401 36.889-77.44 110.797-84.352 42.189-3.942 92.953 19.2 125.85 58.752-3.123 5.299-4.941 11.52-4.941 18.099 0 19.815 16.051 35.84 35.84 35.84 19.815 0 35.84-16.051 35.84-35.84 0-19.507-15.616-35.353-35.046-35.789-39.142-50.509-98.765-80.999-155.238-77.44 1.305-8.295 1.792-24.243 2.458-28.493 2.304-14.822 60.083-57.856 151.987-57.959 91.904 0.103 149.683 43.136 152.013 57.933 2.253 14.771 42.010 292.070 47.411 327.347 5.325 34.765-73.805 75.52-199.424 75.52zM49.741 210.304c-1.408 16.461 11.648 38.349 49.254 54.759 5.401-34.304 11.29-71.603 16.461-104.295-41.063 8.013-63.949 29.414-65.715 49.536zM281.6 332.186c-91.904 0.051-157.107 34.15-157.107 46.899-0.051 12.646 65.203 45.824 157.107 45.773 91.904 0.051 157.159-33.127 157.107-45.773 0-12.749-65.203-46.848-157.107-46.899z" />
<glyph unicode="&#xe677;" d="M245.351 331.879c49.971 0 66.329 35.353 47.079 72.781-22.298 43.341 48.512 80.768 13.337 80.768-33.305 0-95.642-36.301-107.264-81.485-8.678-33.894 7.577-72.064 46.848-72.064zM378.777 102.733l-11.366 9.805c-12.467 10.752-32 10.701-44.416 0l-11.315-9.779c-15.872-13.671-35.763-20.505-55.654-20.505s-39.782 6.835-55.629 20.48l-11.367 9.831c-12.467 10.701-31.975 10.726-44.391-0.026l-11.367-9.805c-30.541-26.317-75.955-27.034-107.623-2.56v-100.173c0-14.131 11.469-25.6 25.6-25.6h409.6c14.131 0 25.6 11.469 25.6 25.6v100.147c-31.667-24.423-77.082-23.783-107.673 2.586zM256 307.2c-193.894 0-230.4-86.042-230.4-128v-12.007l29.799-25.677c12.442-10.777 31.974-10.675 44.416 0l11.367 9.805c31.667 27.264 79.488 27.289 111.232 0l11.367-9.83c12.391-10.675 31.872-10.752 44.416 0.026l11.315 9.779c31.744 27.315 79.539 27.315 111.257 0.026l11.366-9.805c12.467-10.777 32-10.675 44.416 0l29.849 25.677v12.007c0 41.959-36.505 128-230.4 128z" />
<glyph unicode="&#xe678;" d="M373.76 460.8h-235.571c-19.686 0-35.789-16.103-35.789-35.84v-389.12c0-19.712 16.103-35.84 35.789-35.84h235.571c19.687 0 35.84 16.154 35.84 35.84v389.12c0 19.738-16.154 35.84-35.84 35.84zM179.2 179.2c17.638 0 32-11.443 32-25.6s-14.362-25.6-32-25.6c-17.664 0-32 11.443-32 25.6s14.336 25.6 32 25.6zM147.2 230.4c0 14.157 14.336 25.6 32 25.6 17.638 0 32-11.443 32-25.6s-14.362-25.6-32-25.6c-17.664 0-32 11.443-32 25.6zM179.2 102.4c17.638 0 32-11.443 32-25.6s-14.362-25.6-32-25.6c-17.664 0-32 11.443-32 25.6s14.336 25.6 32 25.6zM256 179.2c17.639 0 32-11.443 32-25.6s-14.361-25.6-32-25.6c-17.664 0-32 11.443-32 25.6s14.336 25.6 32 25.6zM224 230.4c0 14.157 14.336 25.6 32 25.6 17.639 0 32-11.443 32-25.6s-14.361-25.6-32-25.6c-17.664 0-32 11.443-32 25.6zM256 102.4c17.639 0 32-11.443 32-25.6s-14.361-25.6-32-25.6c-17.664 0-32 11.443-32 25.6s14.336 25.6 32 25.6zM332.8 179.2c17.639 0 32-11.443 32-25.6s-14.361-25.6-32-25.6c-17.664 0-32 11.443-32 25.6s14.336 25.6 32 25.6zM300.8 230.4c0 14.157 14.336 25.6 32 25.6 17.639 0 32-11.443 32-25.6s-14.361-25.6-32-25.6c-17.664 0-32 11.443-32 25.6zM332.8 102.4c17.639 0 32-11.443 32-25.6s-14.361-25.6-32-25.6c-17.664 0-32 11.443-32 25.6s14.336 25.6 32 25.6zM128 307.2v76.8h256v-76.8h-256z" />
<glyph unicode="&#xe679;" d="M435.2 409.6h-25.6v-51.2h-76.8v51.2h-153.6v-51.2h-76.8v51.2h-25.6c-28.186 0-51.2-23.040-51.2-51.2v-307.2c0-28.16 23.014-51.2 51.2-51.2h358.4c28.16 0 51.2 23.040 51.2 51.2v307.2c0 28.16-23.040 51.2-51.2 51.2zM435.2 51.2h-358.4v204.8h358.4v-204.8zM166.4 460.8h-51.2v-89.6h51.2v89.6zM396.8 460.8h-51.2v-89.6h51.2v89.6z" />
<glyph unicode="&#xe67a;" d="M256 281.6c-42.419 0-76.8-34.407-76.8-76.8s34.381-76.8 76.8-76.8c42.394 0 76.8 34.406 76.8 76.8s-34.406 76.8-76.8 76.8zM460.8 358.4h-61.44c-8.448 0-17.562 6.553-20.199 14.592l-15.897 47.642c-2.688 8.013-11.75 14.567-20.224 14.567h-174.080c-8.448 0-17.561-6.553-20.198-14.541l-15.923-47.667c-2.662-8.038-11.751-14.592-20.198-14.592h-61.44c-28.16 0-51.2-23.040-51.2-51.2v-230.4c0-28.16 23.040-51.2 51.2-51.2h409.6c28.16 0 51.2 23.040 51.2 51.2v230.4c0 28.16-23.040 51.2-51.2 51.2zM256 76.8c-70.707 0-128 57.293-128 128s57.293 128 128 128c70.682 0 128-57.293 128-128s-57.318-128-128-128zM448 276.48c-9.907 0-17.92 8.038-17.92 17.946 0 9.856 8.013 17.92 17.92 17.92s17.92-8.038 17.92-17.92c0-9.907-8.013-17.946-17.92-17.946z" />
<glyph unicode="&#xe67b;" d="M17.536 230.4h60.723v5.248c2.765 113.511 95.335 204.697 209.126 204.697 115.584 0 209.255-94.003 209.255-209.945s-93.671-209.895-209.255-209.895c-48.589 0-93.312 16.64-128.845 44.493l35.994 38.502c26.010-19.149 58.112-30.541 92.851-30.541 86.682 0 156.953 70.502 156.953 157.44s-70.272 157.44-156.953 157.44c-84.915 0-154.061-67.661-156.8-152.192v-5.248h68.403l-89.447-99.687-92.007 99.687z" />
<glyph unicode="&#xe67c;" d="M148.48 174.080v158.72h-97.28c-28.16 0-51.2-23.040-51.2-51.2v-153.6c0-28.16 23.040-51.2 51.2-51.2h25.6v-76.8l76.8 76.8h128c28.16 0 51.2 23.040 51.2 51.2v46.592c-1.639-0.358-3.379-0.538-5.12-0.538l-179.2 0.026zM460.8 460.8h-230.4c-28.16 0-51.2-23.040-51.2-51.2v-204.8h179.2l76.8-76.8v76.8h25.6c28.16 0 51.2 23.015 51.2 51.2v153.6c0 28.16-23.040 51.2-51.2 51.2z" />
<glyph unicode="&#xe67d;" d="M212.327 51.251c-11.136 0-21.683 5.197-28.441 14.157l-91.469 120.858c-11.904 15.693-8.806 38.042 6.912 49.946 15.744 11.955 38.093 8.806 49.997-6.912l60.185-79.463 151.321 242.995c10.419 16.691 32.435 21.811 49.178 11.392 16.717-10.394 21.863-32.41 11.418-49.152l-178.791-286.976c-6.195-10.010-16.922-16.256-28.672-16.793-0.563-0.051-1.075-0.051-1.638-0.051z" />
<glyph unicode="&#xe67e;" d="M256 445.44c-118.758 0-215.040-96.281-215.040-215.040s96.281-215.040 215.040-215.040 215.040 96.281 215.040 215.040c0 118.758-96.281 215.040-215.040 215.040zM378.599 152.038l-44.262-44.262-78.336 78.362-78.362-78.336-44.263 44.262 78.387 78.336-78.362 78.362 44.263 44.237 78.336-78.336 78.361 78.362 44.262-44.262-78.387-78.362 78.361-78.362z" />
<glyph unicode="&#xe67f;" d="M256 445.44c-118.758 0-215.040-96.281-215.040-215.040s96.281-215.040 215.040-215.040 215.040 96.281 215.040 215.040c0 118.758-96.281 215.040-215.040 215.040zM384 204.8h-256v51.2h256v-51.2z" />
<glyph unicode="&#xe680;" d="M256 445.44c-118.758 0-215.040-96.281-215.040-215.040s96.281-215.040 215.040-215.040 215.040 96.281 215.040 215.040c0 118.758-96.281 215.040-215.040 215.040zM384 204.8h-102.4v-102.4h-51.2v102.4h-102.4v51.2h102.4v102.4h51.2v-102.4h102.4v-51.2z" />
<glyph unicode="&#xe681;" d="M256 476.16c-135.731 0-245.76-110.029-245.76-245.76s110.029-245.76 245.76-245.76c135.706 0 245.76 110.029 245.76 245.786 0 135.706-110.055 245.734-245.76 245.734zM256 35.865c-107.443 0-194.56 87.091-194.56 194.56s87.091 194.535 194.56 194.535c107.443 0 194.586-87.091 194.586-194.56s-87.142-194.535-194.586-194.535z" />
<glyph unicode="&#xe682;" d="M450.151 246.477h51.2c-1.664 26.855-7.501 52.557-17.101 76.391l-44.954-25.959c5.735-15.949 9.498-32.845 10.854-50.432zM360.986 453.248c-24.448 11.546-50.944 19.379-79.001 22.272v-51.737c18.765-2.483 36.685-7.552 53.351-14.976l25.651 44.441zM415.795 342.477l44.57 25.728c-15.13 22.477-34.048 42.112-55.603 58.496l-25.753-44.595c14.055-11.418 26.394-24.781 36.787-39.629zM256.358 36.582c-107.443 0-194.56 87.091-194.56 194.56 0 98.765 73.651 180.121 168.986 192.665v51.738c-123.725-12.8-220.185-117.325-220.185-244.403 0-135.757 110.029-245.786 245.786-245.786 123.495 0 225.459 91.213 242.841 209.92h-51.738c-16.845-90.291-95.949-158.695-191.13-158.695z" />
<glyph unicode="&#xe683;" d="M512 409.6v-358.4c0-14.131-11.443-25.6-25.6-25.6h-460.8c-14.157 0-25.6 11.469-25.6 25.6v358.4c0 14.157 11.443 25.6 25.6 25.6h25.6l76.8-76.8h64l-76.8 76.8h76.8l76.8-76.8h64l-76.8 76.8h76.8l76.8-76.8h64l-76.8 76.8h89.6c14.157 0 25.6-11.469 25.6-25.6z" />
<glyph unicode="&#xe684;" d="M399.36 435.2l-30.72-76.8h-225.28l-30.72 76.8c-19.737 0-35.84-16.103-35.84-35.84v-389.12c0-19.712 16.102-35.84 35.815-35.84h286.72c19.712 0 35.84 16.154 35.84 35.84v389.12c0.026 19.738-16.128 35.84-35.815 35.84zM348.16 384l23.040 51.2h-55.834l-18.406 51.2h-81.92l-18.432-51.2h-55.808l23.014-51.2h184.345z" />
<glyph unicode="&#xe685;" d="M256 476.16c-135.757 0-245.786-110.029-245.786-245.76 0-135.757 110.029-245.786 245.786-245.786 135.706 0 245.76 110.029 245.76 245.786 0 135.731-110.055 245.76-245.76 245.76zM255.975 35.84c-107.443 0-194.56 87.091-194.56 194.56 0 107.443 87.091 194.56 194.56 194.56 107.443 0 194.585-87.091 194.585-194.56 0-107.443-87.142-194.56-194.585-194.56zM281.6 247.552v136.448h-51.2v-159.872l-90.778-52.429 25.6-44.339 105.344 60.851c6.093 3.507 11.034 12.109 11.034 19.149v4.301l108.544 106.649c-5.069 6.938-10.522 13.543-16.563 19.61l-91.981-90.368z" />
<glyph unicode="&#xe686;" d="M146.406 108.8c-6.042 0-12.135 2.125-16.999 6.451l-129.536 115.149 136.73 121.549c10.547 9.344 26.726 8.448 36.121-2.125s8.448-26.752-2.125-36.147l-93.671-83.277 86.477-76.851c10.573-9.395 11.52-25.575 2.125-36.147-5.043-5.709-12.083-8.601-19.123-8.601zM375.399 108.851l136.73 121.549-129.536 115.149c-10.573 9.395-26.752 8.448-36.122-2.125-9.395-10.573-8.448-26.752 2.125-36.147l86.477-76.877-93.671-83.251c-10.573-9.395-11.52-25.575-2.125-36.147 5.043-5.709 12.083-8.601 19.123-8.601 6.041 0 12.135 2.125 16.998 6.451zM255.642 72.576l51.2 307.2c2.329 13.952-7.091 27.136-21.043 29.466-14.003 2.355-27.161-7.091-29.44-21.043l-51.2-307.2c-2.329-13.952 7.091-27.136 21.043-29.466 1.434-0.231 2.816-0.333 4.224-0.333 12.288 0 23.142 8.883 25.216 21.376z" />
<glyph unicode="&#xe687;" d="M429.645 230.4c0 26.855 16.538 48 41.395 62.541-4.505 14.95-10.419 29.312-17.715 42.803-27.878-7.296-50.432 3.609-69.401 22.605-18.969 18.944-24.781 41.498-17.485 69.401-13.491 7.296-27.853 13.261-42.803 17.69-14.541-24.832-40.832-41.344-67.635-41.344-26.829 0-53.094 16.512-67.661 41.344-14.976-4.429-29.286-10.393-42.778-17.689 7.296-27.904 1.511-50.457-17.511-69.402-18.944-18.995-41.498-29.901-69.401-22.605-7.296-13.491-13.235-27.853-17.689-42.803 24.832-14.541 41.344-35.686 41.344-62.541 0-26.803-16.512-53.095-41.344-67.661 4.48-14.95 10.393-29.286 17.69-42.803 27.904 7.296 50.457 1.51 69.401-17.459 18.97-18.995 24.806-41.549 17.511-69.401 13.491-7.296 27.827-13.261 42.803-17.741 14.541 24.909 40.832 41.395 67.661 41.395 26.803 0 53.094-16.512 67.661-41.395 14.95 4.505 29.286 10.445 42.803 17.741-7.296 27.853-1.51 50.406 17.485 69.401 18.969 18.944 41.523 29.849 69.401 22.605 7.296 13.491 13.235 27.801 17.715 42.803-24.909 14.567-41.447 35.712-41.447 62.515zM256 136.909c-51.661 0-93.517 41.856-93.517 93.491 0 51.661 41.882 93.542 93.517 93.542 51.661 0 93.491-41.907 93.491-93.542 0-51.661-41.831-93.491-93.491-93.491z" />
<glyph unicode="&#xe688;" d="M81.382 332.851c-10.829 8.96-27.059 7.424-36.045-3.379l-32.691-39.399c-8.96-10.829-7.449-27.085 3.354-36.019l201.933-167.475-97.459 213.863-39.091 32.409zM179.533 417.715l-46.592-21.222c-12.775-5.837-18.483-21.12-12.672-33.894l108.8-238.72 5.453 234.983-21.043 46.183c-5.888 12.8-21.145 18.509-33.946 12.672zM363.801 412.493c0.333 14.080-10.931 25.856-24.986 26.189l-51.2 1.178c-14.055 0.333-25.831-10.931-26.163-24.986l-6.119-262.221 107.264 209.075 1.203 50.765zM491.289 388.173l-45.543 23.373c-12.519 6.4-28.058 1.408-34.483-11.111l-163.609-318.873c-6.425-12.519-1.434-28.058 11.11-34.483l45.543-23.373c12.519-6.425 28.032-1.433 34.457 11.085l163.609 318.873c6.425 12.57 1.433 28.083-11.085 34.509zM327.654 69.299c-6.451-12.595-21.888-17.562-34.457-11.111-12.595 6.451-17.536 21.863-11.085 34.457s21.863 17.536 34.457 11.085c12.595-6.425 17.536-21.863 11.085-34.432z" />
<glyph unicode="&#xe689;" d="M139.623 113.971c0 0 116.941 16.051 166.861 65.945s65.945 166.861 65.945 166.861-116.966-16.051-166.861-65.946-65.945-166.861-65.945-166.861zM230.835 255.616c20.941 20.941 61.056 35.84 95.463 45.107-9.241-34.355-24.192-74.752-45.056-95.539-13.901-13.952-36.505-13.952-50.406 0-13.952 13.901-13.952 36.48 0 50.432zM256.026 476.16c-135.757 0-245.786-110.029-245.786-245.76 0-135.757 110.029-245.786 245.786-245.786 135.705 0 245.76 110.029 245.76 245.786 0 135.731-110.055 245.76-245.76 245.76zM256 35.84c-107.443 0-194.56 87.091-194.56 194.56 0 107.443 87.091 194.56 194.56 194.56 107.443 0 194.586-87.091 194.586-194.56 0-107.443-87.142-194.56-194.586-194.56z" />
<glyph unicode="&#xe68a;" d="M281.6 486.4h-204.8c-14.157 0-25.6-11.443-25.6-25.6v-307.2c0-14.131 11.443-25.6 25.6-25.6h128v-51.2h51.2v51.2h-51.174v51.2h51.174v51.2h-51.2v-51.2h-102.4v256h153.6v-102.4h51.2v128c0 14.131-11.443 25.6-25.6 25.6zM204.8 307.2v-25.6h51.2v51.2h-25.6c-14.157 0-25.6-11.443-25.6-25.6zM307.2-25.6h51.2v51.2h-51.2v-51.2zM307.2 281.6h51.2v51.2h-51.2v-51.2zM204.8 0c0-14.131 11.443-25.6 25.6-25.6h25.6v51.2h-51.2v-25.6zM435.2 332.8h-25.6v-51.2h51.2v25.6c0 14.131-11.443 25.6-25.6 25.6zM409.6-25.6h25.6c14.157 0 25.6 11.469 25.6 25.6v25.6h-51.2v-51.2zM409.6 179.2h51.2v51.2h-51.2v-51.2zM409.6 76.8h51.2v51.2h-51.2v-51.2z" />
<glyph unicode="&#xe68b;" d="M460.8 409.6h-409.6c-28.186 0-51.2-23.040-51.2-51.2v-256c0-28.16 23.015-51.2 51.2-51.2h409.6c28.16 0 51.2 23.040 51.2 51.2v256c0 28.16-23.040 51.2-51.2 51.2zM460.8 102.4h-409.6v153.6h409.6v-153.6zM460.8 332.8h-409.6v25.6h409.6v-25.6zM102.4 202.24v-15.36h15.36v15.36h-15.36zM194.56 171.546v-15.385h30.72v15.385h15.36v15.36h15.36v15.36h-30.72v-15.36h-15.386v-15.36h-15.334zM256 156.16v15.385h-15.386v-15.385h15.386zM179.2 156.16v15.385h-30.72v-15.385h30.72zM194.56 186.905h15.36v15.36h-30.72v-30.695h15.36v15.334zM133.095 171.546h15.386v15.36h15.36v15.36h-30.72v-15.36h-15.36v-15.36h-15.36v-15.385h30.695v15.385z" />
<glyph unicode="&#xe68c;" d="M281.6 57.472v-57.472h-51.2v54.861c-43.827 2.56-78.49 15.079-108.57 46.003l43.981 44.544c21.99-22.272 51.789-29.696 84.019-29.696 40.064 0 61.568 15.334 61.568 43.571 0 12.365-3.405 22.759-10.752 29.696-6.835 6.425-14.643 9.907-30.771 12.365l-42.035 5.939c-29.798 4.454-51.763 13.849-67.43 29.21-16.589 16.819-24.909 39.577-24.909 69.299 0 55.168 35.379 95.821 94.899 104.96v50.048h51.2v-49.459c35.379-3.712 63.104-15.872 87.424-39.705l-42.983-43.059c-21.99 21.299-48.358 24.243-71.347 24.243-36.147 0-53.734-20.275-53.734-44.544 0-8.909 2.944-18.329 10.266-25.241 6.835-6.451 18.073-11.879 32.256-13.85l41.011-5.939c31.769-4.454 51.789-13.363 66.457-27.213 18.586-17.818 26.88-43.571 26.88-74.752 0-57.6-40.115-93.747-96.231-103.808z" />
<glyph unicode="&#xe68d;" d="M367.309 106.265c-12.007-12.007-31.462-12.007-43.443 0l-67.865 77.568-67.865-77.543c-12.006-12.007-31.463-12.007-43.443 0-12.006 12.007-12.006 31.462 0 43.443l70.605 80.64-70.63 80.691c-12.006 12.006-12.006 31.437 0 43.443s31.437 12.007 43.443 0l67.891-77.593 67.865 77.593c12.007 12.007 31.437 12.007 43.443 0s12.007-31.462 0-43.443l-70.605-80.691 70.605-80.64c12.007-12.007 12.007-31.462 0-43.469z" />
<glyph unicode="&#xe68e;" d="M256 460.8c-109.543 0-177.664-36.096-173.952-65.408l36.915-344.755c1.485-11.776 56.857-50.586 137.037-50.637 80.154 0.051 135.552 38.861 136.986 50.663l36.915 344.755c3.712 29.286-64.358 65.382-173.901 65.382zM256 350.951c-80.179 0.051-137.037 28.595-137.037 39.296-0.025 10.599 56.883 39.194 137.037 39.143 80.154 0.051 137.063-28.544 136.986-39.143 0-10.701-56.832-39.245-136.986-39.296z" />
<glyph unicode="&#xe68f;" d="M494.464 230.4h-60.723v5.248c-2.765 113.511-95.334 204.697-209.126 204.697-115.584 0-209.255-94.003-209.255-209.945s93.671-209.895 209.255-209.895c48.589 0 93.312 16.64 128.845 44.493l-35.993 38.502c-26.010-19.149-58.112-30.541-92.851-30.541-86.681 0-156.953 70.502-156.953 157.44s70.272 157.44 156.953 157.44c84.915 0 154.061-67.661 156.8-152.192v-5.248h-68.403l89.447-99.687 92.007 99.687z" />
<glyph unicode="&#xe690;" d="M141.209 122.265c-57.907 62.259-56.883 159.846 3.277 220.442 24.627 24.807 55.399 39.603 87.399 44.442l-1.767 53.171c-44.928-5.453-88.371-25.497-122.803-60.185-80.615-81.152-81.587-212.199-3.149-295.194l-44.569-44.851 141.056-7.705-0.384 149.351-59.059-59.469zM311.373 428.416l0.384-149.351 59.059 59.443c57.907-62.311 56.883-159.898-3.277-220.442-24.601-24.807-55.399-39.603-87.399-44.442l1.767-53.145c44.928 5.453 88.371 25.498 122.829 60.16 80.589 81.203 81.561 212.25 3.123 295.193l44.57 44.903-141.056 7.68z" />
<glyph unicode="&#xe691;" d="M428.185 162.79c-21.581-34.893-90.496-60.442-172.185-60.442s-150.605 25.549-172.211 60.442c-4.557 7.424-6.989 3.456-6.989-0.179 0-3.687 0-51.251 0-51.251 0-49.664 80.231-101.12 179.2-101.12s179.2 51.456 179.2 101.094c0 0 0 47.565 0 51.251 0 3.661-2.457 7.629-7.014 0.205zM428.467 293.76c-21.248-30.848-90.419-53.504-172.467-53.504s-151.245 22.656-172.493 53.504c-4.377 6.349-6.707 2.893-6.707 0.051 0-2.893 0-60.339 0-60.339 0-45.107 80.231-81.639 179.2-81.639s179.2 36.557 179.2 81.639c0 0 0 57.447 0 60.339 0 2.841-2.355 6.298-6.733-0.051zM256 460.8c-98.969 0-179.2-30.208-179.2-67.405v-32.256c0-39.45 80.231-71.45 179.2-71.45s179.2 32 179.2 71.45v32.256c0 37.197-80.231 67.405-179.2 67.405z" />
<glyph unicode="&#xe692;" d="M153.6 486.4h-51.2c-14.131 0-25.6-11.469-25.6-25.6v-51.2c0-14.131 11.469-25.6 25.6-25.6h51.2c14.131 0 25.6 11.469 25.6 25.6v51.2c0 14.131-11.469 25.6-25.6 25.6zM281.6 486.4h-51.2c-14.131 0-25.6-11.469-25.6-25.6v-51.2c0-14.131 11.469-25.6 25.6-25.6h51.2c14.131 0 25.6 11.469 25.6 25.6v51.2c0 14.131-11.469 25.6-25.6 25.6zM409.6 486.4h-51.2c-14.131 0-25.6-11.469-25.6-25.6v-51.2c0-14.131 11.469-25.6 25.6-25.6h51.2c14.131 0 25.6 11.469 25.6 25.6v51.2c0 14.131-11.469 25.6-25.6 25.6zM153.6 358.4h-51.2c-14.131 0-25.6-11.469-25.6-25.6v-51.2c0-14.131 11.469-25.6 25.6-25.6h51.2c14.131 0 25.6 11.469 25.6 25.6v51.2c0 14.131-11.469 25.6-25.6 25.6zM281.6 358.4h-51.2c-14.131 0-25.6-11.469-25.6-25.6v-51.2c0-14.131 11.469-25.6 25.6-25.6h51.2c14.131 0 25.6 11.469 25.6 25.6v51.2c0 14.131-11.469 25.6-25.6 25.6zM409.6 358.4h-51.2c-14.131 0-25.6-11.469-25.6-25.6v-51.2c0-14.131 11.469-25.6 25.6-25.6h51.2c14.131 0 25.6 11.469 25.6 25.6v51.2c0 14.131-11.469 25.6-25.6 25.6zM153.6 230.4h-51.2c-14.131 0-25.6-11.469-25.6-25.6v-51.2c0-14.131 11.469-25.6 25.6-25.6h51.2c14.131 0 25.6 11.469 25.6 25.6v51.2c0 14.131-11.469 25.6-25.6 25.6zM281.6 230.4h-51.2c-14.131 0-25.6-11.469-25.6-25.6v-51.2c0-14.131 11.469-25.6 25.6-25.6h51.2c14.131 0 25.6 11.469 25.6 25.6v51.2c0 14.131-11.469 25.6-25.6 25.6zM281.6 76.8h-51.2c-14.131 0-25.6-11.469-25.6-25.6v-51.2c0-14.131 11.469-25.6 25.6-25.6h51.2c14.131 0 25.6 11.469 25.6 25.6v51.2c0 14.131-11.469 25.6-25.6 25.6zM409.6 230.4h-51.2c-14.131 0-25.6-11.469-25.6-25.6v-51.2c0-14.131 11.469-25.6 25.6-25.6h51.2c14.131 0 25.6 11.469 25.6 25.6v51.2c0 14.131-11.469 25.6-25.6 25.6z" />
<glyph unicode="&#xe693;" d="M462.336 436.711c-15.002 15.001-29.286 0.845-77.85-22.503-129.92-62.438-356.327-189.337-356.327-189.337l194.535-27.751 27.776-194.534c0 0 126.925 226.381 189.338 356.25 23.347 48.589 37.504 62.874 22.528 77.875zM415.642 386.663l-141.286-262.323-14.361 119.168 155.648 143.155z" />
<glyph unicode="&#xe694;" d="M409.6 460.8h-307.2c-14.157 0-25.6-11.443-25.6-25.6v-409.6c0-14.131 11.443-25.6 25.6-25.6h307.2c14.157 0 25.6 11.469 25.6 25.6v409.6c0 14.131-11.443 25.6-25.6 25.6zM384 51.2h-256v358.4h256v-358.4z" />
<glyph unicode="&#xe695;" d="M496.589 296.576l-190.566 51.097-33.357 124.442c-2.791 10.393-13.952 16.435-24.909 13.542l-232.345-62.259c-10.957-2.918-17.561-13.773-14.771-24.167l82.688-308.505c2.79-10.394 13.927-16.461 24.858-13.491l92.493 24.755-12.595-47.053c-2.791-10.394 3.815-21.248 14.771-24.141l207.616-55.654c10.957-2.944 22.067 3.098 24.883 13.543l76.032 283.751c2.765 10.393-3.84 21.248-14.797 24.141zM41.805 393.447l200.448 53.657 74.189-276.941-200.448-53.658-74.189 276.941zM401.357 13.747l-174.439 47.693 13.721 51.251 99.865 26.803c10.957 2.893 17.613 13.747 14.797 24.141l-38.605 144.051 152.243-41.753-67.584-252.185z" />
<glyph unicode="&#xe696;" d="M448.973 418.841c10.087 13.952 11.827 41.959 11.827 41.959h-409.6c0 0 1.741-28.007 11.827-41.959l167.373-214.042v-153.6h-51.2c-51.2 0-51.2-51.2-51.2-51.2h256c0 0 0 51.2-51.2 51.2h-51.2v153.6l167.373 214.042zM240.64 332.8c0 22.656 18.329 40.96 40.96 40.96s40.96-18.304 40.96-40.96c0-22.605-18.329-40.96-40.96-40.96s-40.96 18.355-40.96 40.96z" />
<glyph unicode="&#xe697;" d="M487.911 207.411l-81.178 202.931c-5.99 15.027-20.531 24.858-36.711 24.858h-228.045c-16.179 0-30.72-9.831-36.71-24.858l-81.177-202.931c-7.373-18.457-9.549-38.579-6.297-58.163l15.104-90.599c3.175-19.072 19.661-33.050 38.989-33.050h368.205c19.328 0 35.815 13.978 38.989 33.050l15.104 90.599c3.303 19.584 1.127 39.705-6.272 58.163zM434.151 96.128c-1.843-11.161-11.495-19.328-22.81-19.328h-310.682c-11.315 0-20.966 8.166-22.809 19.328l-9.344 56.141c-2.381 14.106 8.499 26.931 22.809 26.931h329.395c14.285 0 25.165-12.825 22.81-26.931l-9.37-56.141z" />
<glyph unicode="&#xe698;" d="M261.197 472.038c-0.691 5.504-9.728 5.504-10.393 0-22.605-181.939-138.189-219.443-138.189-345.907 0-78.157 65.638-141.491 143.385-141.491 77.721 0 143.36 63.36 143.36 141.491 0 126.464-115.558 163.968-138.163 345.907zM239.36 270.899c-1.511-5.606-3.149-11.366-4.839-17.357-10.266-36.455-21.913-77.799-21.913-125.594 0-25.907-15.309-35.097-29.594-35.097-16.358 0-29.594 13.389-29.594 29.849 0 56.499 27.187 93.415 51.2 125.952 7.552 10.189 14.643 19.84 20.403 29.44 2.637 4.403 9.728 4.199 12.953-0.154 1.511-2.048 2.023-4.659 1.382-7.040z" />
<glyph unicode="&#xe699;" d="M449.562 423.962c-36.915 36.941-64.64 31.411-64.64 31.411l-328.346-328.32-25.856-121.907 121.933 25.856 328.346 328.269c-0.026 0 5.529 27.725-31.437 64.691zM145.408 45.645l-41.575-8.96c-3.993 7.501-8.832 15.002-17.664 23.859-8.858 8.858-16.359 13.645-23.859 17.69l8.96 41.549 12.032 12.007c0 0 22.605-0.461 48.154-26.010 25.523-25.498 26.010-48.154 26.010-48.154l-12.058-11.981z" />
<glyph unicode="&#xe69a;" d="M373.965 174.797c0-21.504 6.118-30.080 22.118-30.080 35.661 0 58.368 45.44 58.368 121.011 0 115.507-84.173 170.803-189.261 170.803-108.109 0-206.439-72.499-206.439-209.511 0-130.867 86.016-202.138 218.112-202.138 44.851 0 74.957 4.915 121.011 20.275l9.882-41.139c-45.466-14.771-94.055-19.046-131.507-19.046-173.261 0-266.061 95.232-266.061 242.073 0 148.071 107.546 248.832 255.616 248.832 154.214 0 235.904-92.16 235.904-205.209 0-95.847-30.080-168.96-124.697-168.96-43.034 0-71.27 17.203-74.957 55.322-11.059-42.394-40.55-55.322-80.512-55.322-53.453 0-98.304 41.19-98.304 124.109 0 83.559 39.347 135.168 110.003 135.168 37.478 0 60.825-14.745 71.219-38.093l17.843 32.563h51.61v-180.659h0.051zM298.419 255.898c0 33.766-25.216 47.923-46.106 47.923-22.733 0-47.898-18.407-47.898-72.499 0-43.008 19.047-66.97 47.898-66.97 20.275 0 46.106 12.902 46.106 48.538v43.008z" />
<glyph unicode="&#xe69b;" d="M256 476.16c-135.731 0-245.76-110.029-245.76-245.76s110.029-245.76 245.76-245.76c135.706 0 245.76 110.029 245.76 245.786 0 135.706-110.055 245.734-245.76 245.734zM256 35.865c-107.443 0-194.56 87.091-194.56 194.56s87.091 194.535 194.56 194.535c107.443 0 194.586-87.091 194.586-194.56s-87.142-194.535-194.586-194.535zM192.025 236.8c21.197 0 38.374 20.045 38.374 44.8s-17.203 44.8-38.4 44.8-38.4-20.045-38.4-44.8 17.203-44.8 38.425-44.8zM320 236.8c21.223 0 38.4 20.045 38.4 44.8s-17.203 44.8-38.4 44.8-38.4-20.070-38.4-44.8 17.203-44.8 38.4-44.8zM367.13 196.198c-9.293 4.762-20.864 1.101-25.805-8.192-0.87-1.69-22.247-40.781-85.299-40.781-62.745 0-84.25 38.733-85.325 40.755-4.813 9.344-16.179 13.159-25.702 8.423-9.472-4.762-13.312-16.281-8.576-25.779 1.28-2.534 31.949-61.798 119.603-61.798 87.68 0 118.298 59.289 119.552 61.824 4.711 9.395 0.921 20.736-8.448 25.549z" />
<glyph unicode="&#xe69c;" d="M256 476.16c-135.731 0-245.76-110.029-245.76-245.76s110.029-245.76 245.76-245.76c135.706 0 245.76 110.029 245.76 245.786 0 135.706-110.055 245.734-245.76 245.734zM256 35.865c-107.443 0-194.56 87.091-194.56 194.56 0 107.443 87.091 194.56 194.56 194.56 107.443 0 194.56-87.091 194.56-194.56s-87.117-194.56-194.56-194.56zM320 326.375c-21.197 0-38.4-20.045-38.4-44.774s17.203-44.8 38.4-44.8c21.223 0 38.4 20.045 38.4 44.8s-17.178 44.774-38.4 44.774zM192.025 236.8c21.197 0 38.374 20.045 38.374 44.8s-17.203 44.8-38.4 44.8c-21.197 0-38.4-20.045-38.4-44.8s17.203-44.8 38.425-44.8zM332.8 172.8h-153.6c-10.599 0-19.2-8.601-19.2-19.2s8.601-19.2 19.2-19.2h153.6c10.599 0 19.2 8.601 19.2 19.2 0 10.624-8.576 19.2-19.2 19.2z" />
<glyph unicode="&#xe69d;" d="M256.026 476.16c-135.757 0-245.786-110.029-245.786-245.76 0-135.757 110.029-245.786 245.786-245.786 135.705 0 245.76 110.029 245.76 245.786-0.026 135.731-110.080 245.76-245.76 245.76zM256 35.865c-107.443 0-194.56 87.091-194.56 194.56 0 107.443 87.091 194.56 194.56 194.56 107.443 0 194.56-87.091 194.56-194.56s-87.117-194.56-194.56-194.56zM320.026 236.8c21.197 0 38.4 20.045 38.4 44.8s-17.203 44.8-38.4 44.8c-21.197 0-38.4-20.045-38.4-44.8s17.178-44.8 38.4-44.8zM192.025 236.8c21.197 0 38.4 20.045 38.4 44.8s-17.203 44.8-38.4 44.8c-21.197 0-38.4-20.045-38.4-44.8s17.178-44.8 38.4-44.8zM256.051 198.4c-87.654 0-118.323-59.264-119.603-61.798-4.762-9.498-0.896-21.017 8.576-25.779 2.765-1.357 5.683-2.022 8.576-2.022 7.040 0 13.824 3.865 17.203 10.599 0.205 0.435 21.043 40.601 85.248 40.601 63.053 0 84.429-39.091 85.197-40.576 4.711-9.472 16.256-13.389 25.753-8.601 9.498 4.711 13.337 16.281 8.601 25.753-1.255 2.534-31.897 61.824-119.552 61.824z" />
<glyph unicode="&#xe69e;" d="M460.8 409.6h-244.583c-11.264 0-27.417-6.042-35.891-13.44l-173.977-152.269c-8.473-7.399-8.473-19.558 0-26.957l173.977-152.243c8.474-7.399 24.627-13.491 35.891-13.491h244.583c28.16 0 51.2 23.040 51.2 51.2v256c0 28.16-23.040 51.2-51.2 51.2zM388.889 128l-65.459 65.459-65.433-65.459-36.941 36.941 65.434 65.459-65.433 65.459 36.941 36.941 65.459-65.408 65.408 65.408 36.966-36.941-65.433-65.459 65.459-65.408-36.966-36.992z" />
<glyph unicode="&#xe69f;" d="M435.149 379.392l-80.743 62.080c-22.323 17.178-54.656 12.954-71.859-9.344l-215.040-278.963c-17.177-22.298-12.979-54.579 9.344-71.757l80.717-62.080c22.323-17.178 54.656-12.954 71.859 9.344l215.065 278.963c17.178 22.298 12.979 54.579-9.344 71.757zM218.829 64.845l-13.747-17.433c-3.891-5.043-9.856-7.936-16.358-7.936-3.174 0-7.911 0.743-12.416 4.199l-80.717 62.080c-4.301 3.303-7.040 8.115-7.757 13.568s0.717 10.803 4.019 15.079l13.747 17.433c3.891 5.043 9.856 7.962 16.384 7.962 3.174 0 7.91-0.743 12.416-4.199l80.743-62.080c4.301-3.303 7.040-8.115 7.757-13.568 0.666-5.453-0.768-10.803-4.071-15.104z" />
<glyph unicode="&#xe6a0;" d="M384 102.4h-332.8v230.4h66.432c0 0 17.639 22.938 55.552 51.2h-147.584c-14.157 0-25.6-11.495-25.6-25.6v-281.6c0-14.157 11.443-25.6 25.6-25.6h384c14.157 0 25.6 11.443 25.6 25.6v95.897l-51.2-42.112v-28.185zM342.041 280.32v-90.906l169.959 133.146-169.958 127.974v-80.154c-206.362 0-206.362-203.981-206.362-203.981 58.419 95.949 94.362 113.92 206.362 113.92z" />
<glyph unicode="&#xe6a1;" d="M256 373.76c-167.962 0-256-123.699-256-143.36 0-19.61 88.038-143.36 256-143.36 167.936 0 256 123.75 256 143.36 0 19.661-88.064 143.36-256 143.36zM256 120.141c-62.848 0-113.792 49.357-113.792 110.259s50.944 110.311 113.792 110.311c62.848 0 113.767-49.408 113.767-110.311s-50.918-110.259-113.767-110.259zM256 230.4c-10.419 11.443 16.973 55.143 0 55.143-31.437 0-56.909-24.704-56.909-55.143s25.472-55.143 56.909-55.143c31.411 0 56.909 24.704 56.909 55.143 0 14.003-48.051-9.703-56.909 0z" />
<glyph unicode="&#xe6a2;" d="M108.903-14.515c7.859 25.139 19.712 60.519 35.609 111.667 69.299 10.983 97.971-8.729 141.978 69.863-35.712-10.931-78.771 20.275-76.467 33.817 2.329 13.517 100.173-9.753 164.25 81.229-80.768-17.817-106.599 21.402-96.179 27.315 24.038 13.67 95.385 5.683 133.427 42.726 19.61 19.072 28.8 65.433 20.813 81.971-9.575 19.994-67.993 49.818-100.198 47.002-32.205-2.791-82.714-122.624-97.715-121.702-14.951 0.947-17.997 53.709 8.167 102.733-27.571-12.211-78.106-50.151-93.952-82.585-29.517-60.339 2.765-198.81-7.577-203.725-10.368-4.941-45.209 63.514-55.603 94.567-14.208-47.591-14.541-95.257 26.957-158.567-15.642-41.549-24.192-89.37-25.498-113.69-0.615-19.43 18.535-23.603 21.99-12.621z" />
<glyph unicode="&#xe6a3;" d="M484.505 343.45c-239.078-347.341-157.235 6.656-359.347-162.739l45.952-180.71h-51.686l-93.824 368.896 47.36 16.998c226.535 165.657 108.237-148.992 400.307-32.103 9.318 3.763 16.768-2.304 11.238-10.342z" />
<glyph unicode="&#xe6a4;" d="M174.157 0.051c-4.966 3.251 80.717 183.296 77.773 191.207-2.97 7.911-93.824 36.762-98.253 50.663-4.454 13.901 179.379 222.899 184.217 218.854 4.813-4.045-80.103-185.293-77.798-191.207 2.329-5.888 95.437-35.942 98.253-50.663 2.841-14.72-179.251-222.106-184.192-218.855z" />
<glyph unicode="&#xe6a5;" d="M438.144 412.57c-42.906 42.906-96.743 58.573-113.894 41.421l-69.017-69.017c-10.47-10.496-19.609-45.542-15.411-80.998l-208.922-208.922c-12.39-12.39-2.355-42.496 22.425-67.303s54.938-34.791 67.302-22.451l208.922 208.947c35.481-4.199 70.528 4.941 80.998 15.386l69.017 69.043c17.152 17.152 1.485 71.014-41.421 113.894zM208.41 203.801c-9.549 9.523-6.425 28.058 6.887 41.395 13.338 13.337 31.898 16.461 41.421 6.912 9.523-9.498 6.425-28.083-6.912-41.395-13.338-13.363-31.872-16.461-41.395-6.912zM381.209 355.635c-33.229 33.203-41.549 77.056-38.605 80 2.944 2.97 45.056-7.091 78.31-40.32 33.229-33.229 43.213-75.418 40.32-78.311-2.867-2.867-46.822 5.376-80.026 38.63z" />
<glyph unicode="&#xe6a6;" d="M47.206 105.241c12.749-9.625 40.807 30.157 49.715 23.424s-20.992-45.107-13.517-50.739c7.475-5.632 38.733 31.719 47.411 25.19 8.653-6.528-20.557-45.414-11.187-52.505 9.395-7.091 39.987 30.771 47.411 25.165s-19.789-46.003-11.187-52.48c8.601-6.502 37.913 32.333 45.056 26.931 7.168-5.401-21.607-44.621-8.857-54.246 12.749-9.6 137.472 229.479 137.472 229.479l-99.226 75.238c0 0-195.84-185.856-183.091-195.456zM333.389 465.127l-86.067-131.993 105.498-79.591 112.537 108.698c-13.491 38.477-88.064 98.381-131.968 102.886z" />
<glyph unicode="&#xe6a7;" d="M471.168 414.745c-2.867 11.264-16.793 20.454-30.976 20.454h-368.384c-14.208 0-28.135-9.19-30.976-20.454l-5.145-30.745h440.601l-5.12 30.745zM496.947 358.4h-481.92c-8.755 0-15.591-7.526-14.771-16.256l23.629-298.726c0.973-10.087 9.472-17.817 19.61-17.817h424.986c10.163 0 18.637 7.731 19.61 17.817l23.629 298.726c0.845 8.73-6.016 16.256-14.771 16.256zM318.413 272c13.261 0 24.013-10.752 24.013-24.013s-10.752-24.013-24.013-24.013-24.013 10.778-24.013 24.039c0 13.235 10.752 23.987 24.013 23.987zM140.8 128l63.642 146.279 72.371-117.145 62.055 30.822 32.333-59.955h-230.4z" />
<glyph unicode="&#xe6a8;" d="M471.168 414.745c-2.867 11.264-16.793 20.454-30.976 20.454h-368.384c-14.208 0-28.135-9.19-30.976-20.454l-5.145-30.745h440.601l-5.12 30.745zM496.947 358.4h-481.92c-8.755 0-15.591-7.526-14.771-16.256l23.629-298.726c0.973-10.087 9.472-17.817 19.61-17.817h424.986c10.163 0 18.637 7.731 19.61 17.817l23.629 298.726c0.845 8.73-6.016 16.256-14.771 16.256zM305.715 165.862c-3.277-6.784-6.605-7.142-5.171 0 3.738 18.457 1.203 58.087-26.701 62.49v-84.327c0-17.255-7.962-32.307-29.082-39.117-20.531-6.553-43.495 0.281-48.845 15.002-5.376 14.745 6.681 32.666 26.931 40.038 11.315 4.122 24.423 5.197 33.255 1.792v119.859h17.767c-0.026-41.805 72.141-32.64 31.846-115.738z" />
<glyph unicode="&#xe6a9;" d="M471.168 414.745c-2.867 11.264-16.793 20.454-30.976 20.454h-368.384c-14.208 0-28.135-9.19-30.976-20.454l-5.145-30.745h440.601l-5.12 30.745zM496.947 358.4h-481.92c-8.755 0-15.591-7.526-14.771-16.256l23.629-298.726c0.973-10.087 9.472-17.817 19.61-17.817h424.986c10.163 0 18.637 7.731 19.61 17.817l23.629 298.726c0.845 8.73-6.016 16.256-14.771 16.256zM204.8 128v128l112.205-64-112.205-64z" />
<glyph unicode="&#xe6aa;" d="M471.168 363.546c-2.841 11.264-16.768 20.454-30.976 20.454h-174.438c-14.183 0-34.048 8.141-44.083 18.099l-15.257 15.053c-10.035 9.959-29.875 18.048-44.058 18.048h-83.328c-14.208 0-27.111-11.443-28.672-25.446l-7.475-76.954h433.433l-5.146 30.745zM496.947 307.2h-481.894c-8.755 0-15.616-7.527-14.771-16.256l23.629-247.526c0.947-10.087 9.447-17.817 19.61-17.817h424.96c10.163 0 18.637 7.731 19.61 17.817l23.629 247.527c0.845 8.729-6.016 16.256-14.771 16.256z" />
<glyph unicode="&#xe6ab;" d="M307.2 182.425v-111.539l179.2 171.264-179.2 168.243v-101.965c-224.64 0-281.6-249.139-281.6-249.139 63.59 112.333 159.667 123.136 281.6 123.136z" />
<glyph unicode="&#xe6ac;" d="M256 460.8c-125.645 0-204.8-38.707-204.8-76.825v-51.2c0-23.501 153.6-153.6 153.6-153.6v-153.6c-0.025-17.51 25.6-25.6 51.2-25.6s51.226 8.089 51.2 25.6v153.6c0 0 153.6 130.099 153.6 153.6v51.2c0 38.118-79.155 76.826-204.8 76.826zM256 329.651c-91.93 0.026-157.133 34.125-157.133 46.873-0.051 12.672 65.229 46.874 157.133 46.822 91.904 0.051 157.184-34.15 157.133-46.797 0-12.775-65.203-46.873-157.133-46.899z" />
<glyph unicode="&#xe6ad;" d="M497.767 246.758c-22.579 126.106-73.063 163.303-99.917 163.303-41.907 0-52.659-31.155-141.85-32.205-89.19 1.049-99.942 32.205-141.85 32.205-26.855 0-77.363-37.197-99.942-163.303-12.877-71.987-26.855-179.456 6.451-192.359 41.447-16.051 55.501 24.089 101.018 58.010 46.208 34.381 68.377 42.471 134.323 42.471s88.115-8.089 134.323-42.471c45.517-33.894 59.571-74.061 101.017-58.010 33.305 12.902 19.328 120.346 6.425 192.359zM153.6 230.4c-28.288 0-51.2 22.938-51.2 51.2 0 28.288 22.912 51.2 51.2 51.2s51.2-22.912 51.2-51.2c0-28.263-22.938-51.2-51.2-51.2zM332.8 230.4c-14.157 0-25.6 11.443-25.6 25.6s11.443 25.6 25.6 25.6c14.157 0 25.6-11.443 25.6-25.6s-11.443-25.6-25.6-25.6zM384 281.6c-14.157 0-25.6 11.443-25.6 25.6s11.443 25.6 25.6 25.6c14.157 0 25.6-11.443 25.6-25.6s-11.443-25.6-25.6-25.6z" />
<glyph unicode="&#xe6ae;" d="M208.051 138.24c-17.638-30.643-5.76-55.808 18.739-69.939 24.474-14.157 52.249-11.904 69.939 18.739 17.639 30.592 129.203 303.744 119.501 309.351s-190.515-227.533-208.179-258.151zM256 332.8c11.213 0 22.118-0.947 32.793-2.791 11.213 14.054 23.757 29.543 35.968 44.237-21.811 6.298-44.851 9.754-68.762 9.754-143.539 0-256-121.063-256-275.61 0-9.498 0.409-18.995 1.254-28.237 1.254-14.106 13.824-24.448 27.75-23.245 14.106 1.305 24.499 13.696 23.245 27.801-0.691 7.731-1.050 15.744-1.050 23.68 0 125.85 89.958 224.41 204.8 224.41zM440.807 300.8c-7.142-19.2-14.695-38.758-21.351-55.655 25.984-37.632 41.344-84.839 41.344-136.755 0-8.089-0.384-16.256-1.101-24.141-1.28-14.106 9.088-26.547 23.168-27.853 0.768-0.051 1.562-0.103 2.355-0.103 13.082 0 24.269 10.010 25.472 23.296 0.845 9.472 1.305 19.149 1.305 28.8 0 75.623-26.957 143.104-71.193 192.41z" />
<glyph unicode="&#xe6af;" d="M256 476.16c-135.552 0-245.786-110.259-245.786-245.76s110.234-245.76 245.786-245.76c135.501 0 245.76 110.259 245.76 245.76s-110.259 245.76-245.76 245.76zM465.613 230.4c0-47.949-16.281-92.16-43.418-127.488-7.68 5.99-15.846 22.195-8.166 38.989 7.757 16.896 9.779 56.013 7.987 71.245-1.69 15.207-9.6 51.84-31.079 52.199-21.453 0.307-36.173 7.399-48.921 32.845-26.445 52.941 49.639 63.104 23.194 92.391-7.399 8.243-45.645-33.843-51.251 22.247-0.358 4.019 3.456 10.035 8.601 16.281 83.046-27.904 143.053-106.419 143.053-198.707zM227.2 437.939c-5.018-9.779-18.253-13.747-26.291-21.095-17.511-15.846-25.037-13.645-34.458-28.851-9.498-15.207-40.115-37.095-40.115-48.103s15.463-23.962 23.194-21.453c7.731 2.56 28.135 2.407 40.115-1.792 12.006-4.25 100.198-8.499 72.089-83.047-8.909-23.706-47.949-19.712-58.343-58.957-1.561-5.76-6.963-30.361-7.296-38.4-0.64-12.442 8.806-59.341-3.2-59.341-12.058 0-44.493 41.959-44.493 49.562s-8.397 34.253-8.397 57.088c0 22.81-38.861 22.451-38.861 52.787 0 27.341 21.069 40.96 16.333 54.093-4.633 13.056-41.651 13.491-57.088 15.104 26.957 69.913 90.368 121.805 166.81 132.403zM190.054 31.488c12.595 6.656 13.875 15.257 25.293 15.693 13.056 0.589 23.68 5.094 38.4 8.346 13.056 2.841 36.429 16.103 56.986 17.792 17.357 1.408 51.584-0.896 60.8-17.639-33.152-22.041-72.909-34.893-115.558-34.893-23.014 0-45.184 3.815-65.92 10.701z" />
<glyph unicode="&#xe6b0;" d="M84.531 173.107c11.879-48.103 26.983-69.145 77.363-91.187 50.406-22.016 74.343-46.080 94.106-46.080 19.738 0 42.189 21.043 92.57 43.111 50.406 22.041 36.941 28.749 48.819 76.851l-141.389-68.762-171.469 86.067zM499.481 298.599l-213.12 119.347c-16.691 9.344-44.032 9.344-60.723 0l-213.145-119.347c-16.691-9.344-16.691-24.653 0-33.997l213.12-119.347c16.691-9.344 44.032-9.344 60.723 0l137.779 77.159-149.401 34.995c-5.76-1.408-12.083-2.201-18.714-2.201-26.931 0-48.743 12.953-48.743 28.953 0 16.051 21.837 29.005 48.743 29.005 20.889 0 38.656-7.859 45.568-18.791l158.259-51.942 39.654 22.195c16.665 9.319 16.665 24.627 0 33.971zM434.355 72.448c-1.664-9.856 32.845-26.061 36.121 2.739 14.822 129.843-10.649 167.194-10.649 167.194l-35.712-19.994c0 0.026 30.285-28.8 10.24-149.939z" />
<glyph unicode="&#xe6b1;" d="M204.8 384h-76.8c-14.157 0-25.6-11.443-25.6-25.6v-76.8c0-14.131 11.443-25.6 25.6-25.6h76.8c14.157 0 25.6 11.469 25.6 25.6v76.8c0 14.131-11.443 25.6-25.6 25.6zM384 384h-76.8c-14.157 0-25.6-11.443-25.6-25.6v-76.8c0-14.131 11.443-25.6 25.6-25.6h76.8c14.157 0 25.6 11.469 25.6 25.6v76.8c0 14.131-11.443 25.6-25.6 25.6zM204.8 204.8h-76.8c-14.157 0-25.6-11.443-25.6-25.6v-76.8c0-14.131 11.443-25.6 25.6-25.6h76.8c14.157 0 25.6 11.469 25.6 25.6v76.8c0 14.131-11.443 25.6-25.6 25.6zM384 204.8h-76.8c-14.157 0-25.6-11.443-25.6-25.6v-76.8c0-14.131 11.443-25.6 25.6-25.6h76.8c14.157 0 25.6 11.469 25.6 25.6v76.8c0 14.131-11.443 25.6-25.6 25.6z" />
</font>
</defs>
</svg>
